<svg viewBox="0 0 101 40" xmlns="http://www.w3.org/2000/svg"><g fill="currentColor" fill-rule="nonzero"><path d="m48.7597656 32c3.7890625 0 6.6870117-.9375 8.6938477-2.8125 2.0068359-1.875 3.0102539-4.5751953 3.0102539-8.1005859 0-3.3105469-.9667969-5.8886719-2.9003906-7.734375-1.9335938-1.8457032-4.6484375-2.7685547-8.1445313-2.7685547h-6.7236328v21.4160156zm.4248047-3.75h-1.9482422v-13.9453125h2.4169922c4.0625 0 6.09375 2.2998047 6.09375 6.8994141 0 4.6972656-2.1875 7.0458984-6.5625 7.0458984zm21.09375 4.0429688c1.1230469 0 2.1240235-.2075196 3.0029297-.6225586.8789062-.4150391 1.5576172-1.003418 2.0361328-1.7651368h.234375l.600586 2.0947266h3.4277343v-16.3769531h-4.4677734v7.7050781c0 1.9335938-.2783203 3.3178711-.8349609 4.152832-.5566407.834961-1.459961 1.2524414-2.709961 1.2524414-.9179687 0-1.586914-.2954101-2.0068359-.8862304s-.6298828-1.4770508-.6298828-2.6586914v-9.5654297h-4.4677735v10.6787109c0 1.9335938.4882813 3.4155274 1.4648438 4.4458008s2.4267578 1.5454102 4.3505859 1.5454102zm20.8886719 0c2.5097656 0 4.4677734-.7519532 5.8740234-2.2558594 1.40625-1.5039063 2.109375-3.5888672 2.109375-6.2548828 0-1.71875-.3222656-3.2177735-.9667968-4.4970704-.6445313-1.2792968-1.5673829-2.2607421-2.7685547-2.9443359-1.2011719-.6835937-2.5878907-1.0253906-4.1601563-1.0253906-2.5292969 0-4.4921875.7421875-5.8886719 2.2265625-1.3964843 1.484375-2.0947265 3.5644531-2.0947265 6.2402344 0 1.71875.3222656 3.2226562.9667968 4.5117187.6445313 1.2890625 1.5673829 2.277832 2.7685547 2.9663086 1.2011719.6884766 2.5878907 1.0327149 4.1601563 1.0327149zm.0585937-3.5888672c-1.2011718 0-2.0678711-.4150391-2.6000976-1.2451172-.5322266-.8300782-.7983399-2.0556641-.7983399-3.6767578 0-1.6308594.2636719-2.8491211.7910157-3.6547852.5273437-.8056641 1.3867187-1.2084961 2.578125-1.2084961 1.2011718 0 2.0654297.4052735 2.5927734 1.2158203.5273437.8105469.7910156 2.0263672.7910156 3.647461 0 1.6308593-.2612304 2.8588867-.7836914 3.684082-.5224609.8251953-1.3793945 1.237793-2.5708008 1.237793z"/><path d="m16 29.53125c-.7857143 0-1.4285714-.6328125-1.4285714-1.40625v-4.5c0-.7734375.6428571-1.40625 1.4285714-1.40625s1.4285714.6328125 1.4285714 1.40625v4.5c0 .7734375-.6428571 1.40625-1.4285714 1.40625zm16-10.40625v13.5c0 1.8632812-1.5357143 3.375-3.4285714 3.375h-25.14285717c-1.89285714 0-3.42857143-1.5117188-3.42857143-3.375v-13.5c0-1.8632813 1.53571429-3.375 3.42857143-3.375h1.14285714v-4.5c0-6.215625 5.14285714-11.27109375 11.46428573-11.25006577 6.3142857.02115952 11.3928571 5.13990952 11.3928571 11.35553447v4.3945313h1.1428572c1.8928571 0 3.4285714 1.5117187 3.4285714 3.375zm-25.14285714-3.375h18.28571424v-4.5c0-4.9640625-4.1-9-9.1428571-9s-9.14285714 4.0359375-9.14285714 9zm22.85714284 16.875v-13.5c0-.61875-.5142857-1.125-1.1428571-1.125h-25.14285717c-.62857143 0-1.14285714.50625-1.14285714 1.125v13.5c0 .61875.51428571 1.125 1.14285714 1.125h25.14285717c.6285714 0 1.1428571-.50625 1.1428571-1.125z" transform="translate(0 2)"/></g></svg>
