<svg viewBox="0 0 151 40" xmlns="http://www.w3.org/2000/svg"><g fill="currentColor" fill-rule="nonzero"><path d="m59.0292969 32v-3.75h-7.7929688v-5.5224609h7.2509766v-3.7207032h-7.2509766v-4.7021484h7.7929688v-3.7207031h-12.3339844v21.4160156zm8.5839843 0v-7.7050781c0-1.9335938.2783204-3.3178711.834961-4.1528321.5566406-.8349609 1.4599609-1.2524414 2.7099609-1.2524414.9179688 0 1.5869141.2954102 2.006836.8862305.4199218.5908203.6298828 1.4770508.6298828 2.6586914v9.5654297h4.4677734v-10.6787109c0-1.9433594-.4931641-3.4301758-1.4794922-4.4604493-.9863281-1.0302734-2.4316406-1.5454101-4.3359375-1.5454101-1.1132812 0-2.1069336.2026367-2.980957.6079101-.8740234.4052735-1.5600586 1.003418-2.0581055 1.7944336h-.2490234l-.6005859-2.0947265h-3.413086v16.3769531zm20.0390626 7.2070312c2.9882812 0 5.2807617-.5273437 6.8774414-1.5820312 1.5966796-1.0546875 2.3950195-2.5390625 2.3950195-4.453125 0-1.4941406-.4711914-2.6269531-1.4135742-3.3984375s-2.3120117-1.1572266-4.1088867-1.1572266h-2.7832032c-1.640625 0-2.4609375-.3222656-2.4609375-.9667968 0-.4296875.2294922-.8203125.6884766-1.171875l.6591797.0732421.805664.0439454c2.1777344 0 3.8793946-.4907227 5.1049805-1.472168s1.8383789-2.3510742 1.8383789-4.1088867c0-.9082031-.234375-1.7285157-.703125-2.4609375l2.5634766-.6591797v-2.2705078h-5.7128906c-.1757813-.0390625-.5786133-.1000977-1.2084961-.1831055-.6298829-.0830078-1.1743165-.1245117-1.6333008-.1245117-2.1582031 0-3.8183594.4882812-4.9804688 1.4648437-1.1621093.9765625-1.743164 2.3583985-1.743164 4.1455078 0 1.1132813.2514648 2.0800782.7543945 2.9003907s1.184082 1.4160156 2.043457 1.7871093c-.6835937.4003907-1.2060547.8081055-1.5673828 1.2231446-.3613281.415039-.5419922.9350586-.5419922 1.5600586 0 .4980468.1708985.9692383.5126953 1.4135742.3417969.4443359.7421875.7641602 1.2011719.9594726-1.1914062.2832032-2.0947266.756836-2.7099609 1.4208985-.6152344.6640625-.9228516 1.4892578-.9228516 2.4755859 0 1.4355469.6030274 2.5512696 1.809082 3.347168 1.2060547.7958984 2.9516602 1.1938476 5.2368165 1.1938476zm.9082031-15.336914c-.8300781 0-1.4477539-.2587891-1.8530274-.7763672-.4052734-.5175781-.6079101-1.2207031-.6079101-2.109375 0-1.9726562.8203125-2.9589844 2.4609375-2.9589844 1.6210937 0 2.4316406.9863282 2.4316406 2.9589844 0 .8886719-.1953125 1.5917969-.5859375 2.109375s-1.0058594.7763672-1.8457031.7763672zm-.7177735 12.421875c-1.0644531 0-1.8920898-.1757813-2.4829101-.5273438s-.8862305-.8349609-.8862305-1.4501953c0-.6347656.2758789-1.1450195.8276367-1.5307617s1.237793-.5786133 2.0581055-.5786133h2.3144531c1.1230469 0 1.953125.1171875 2.4902344.3515625s.8056641.6591797.8056641 1.2744141c0 .7617187-.4541016 1.3623047-1.3623047 1.8017578s-2.163086.6591797-3.7646485.6591797zm15.9521486-3.9990234c1.279297 0 2.316894-.1831055 3.112793-.5493165.795898-.3662109 1.569824-1.0229492 2.321777-1.9702148h.117188l.864258 2.2265625h3.120117v-10.9130859c0-1.953125-.585938-3.4082032-1.757813-4.3652344-1.171875-.9570313-2.856445-1.4355469-5.053711-1.4355469-2.294922 0-4.384765.4931641-6.269531 1.4794922l1.479492 3.0175781c1.767578-.7910156 3.305664-1.1865234 4.614258-1.1865234 1.699219 0 2.548828.8300781 2.548828 2.4902344v.7177734l-2.841797.0878906c-2.451172.0878907-4.284668.5444336-5.500488 1.3696289-1.2158203.8251953-1.8237305 2.1069336-1.8237305 3.8452149 0 1.6601562.4516602 2.9394531 1.3549805 3.8378906.90332.8984375 2.141113 1.3476563 3.713379 1.3476563zm1.68457-3.2666016c-1.445312 0-2.167969-.6298828-2.167969-1.8896484 0-.8789063.317383-1.5332032.952149-1.9628907s1.601562-.6640625 2.90039-.703125l1.728516-.0585937v1.3476562c0 .9863282-.310058 1.7773438-.930176 2.3730469-.620117.5957031-1.447754.8935547-2.48291.8935547zm17.241211 10.180664c2.988281 0 5.280762-.5273437 6.877442-1.5820312 1.596679-1.0546875 2.395019-2.5390625 2.395019-4.453125 0-1.4941406-.471191-2.6269531-1.413574-3.3984375s-2.312012-1.1572266-4.108887-1.1572266h-2.783203c-1.640625 0-2.460938-.3222656-2.460938-.9667968 0-.4296875.229493-.8203125.688477-1.171875l.65918.0732421.805664.0439454c2.177734 0 3.879394-.4907227 5.10498-1.472168s1.838379-2.3510742 1.838379-4.1088867c0-.9082031-.234375-1.7285157-.703125-2.4609375l2.563477-.6591797v-2.2705078h-5.712891c-.175781-.0390625-.578613-.1000977-1.208496-.1831055s-1.174316-.1245117-1.633301-.1245117c-2.158203 0-3.818359.4882812-4.980468 1.4648437-1.16211.9765625-1.743165 2.3583985-1.743165 4.1455078 0 1.1132813.251465 2.0800782.754395 2.9003907s1.184082 1.4160156 2.043457 1.7871093c-.683594.4003907-1.206055.8081055-1.567383 1.2231446-.361328.415039-.541992.9350586-.541992 1.5600586 0 .4980468.170898.9692383.512695 1.4135742s.742188.7641602 1.201172.9594726c-1.191406.2832032-2.094726.756836-2.709961 1.4208985-.615234.6640625-.922851 1.4892578-.922851 2.4755859 0 1.4355469.603027 2.5512696 1.809082 3.347168 1.206054.7958984 2.95166 1.1938476 5.236816 1.1938476zm.908203-15.336914c-.830078 0-1.447754-.2587891-1.853027-.7763672-.405274-.5175781-.60791-1.2207031-.60791-2.109375 0-1.9726562.820312-2.9589844 2.460937-2.9589844 1.621094 0 2.431641.9863282 2.431641 2.9589844 0 .8886719-.195313 1.5917969-.585938 2.109375s-1.005859.7763672-1.845703.7763672zm-.717773 12.421875c-1.064453 0-1.89209-.1757813-2.48291-.5273438-.590821-.3515625-.886231-.8349609-.886231-1.4501953 0-.6347656.275879-1.1450195.827637-1.5307617s1.237793-.5786133 2.058105-.5786133h2.314454c1.123046 0 1.953124.1171875 2.490234.3515625.537109.234375.805664.6591797.805664 1.2744141 0 .7617187-.454102 1.3623047-1.362305 1.8017578s-2.163086.6591797-3.764648.6591797zm19.379883-3.9990234c1.279296 0 2.363281-.0952149 3.251953-.2856446s1.723633-.480957 2.504883-.871582v-3.4570313c-.957032.4492188-1.875.7763672-2.753907.9814453-.878906.2050782-1.811523.3076172-2.797851.3076172-1.269532 0-2.25586-.3564453-2.958985-1.0693359s-1.079101-1.7041016-1.127929-2.9736328h10.561523v-2.1679688c0-2.3242187-.644531-4.1455078-1.933594-5.4638671-1.289062-1.3183594-3.09082-1.9775391-5.405273-1.9775391-2.421875 0-4.318848.7495117-5.690918 2.2485351-1.37207 1.4990235-2.058106 3.6206055-2.058106 6.3647461 0 2.6660157.742188 4.7265625 2.226563 6.1816407 1.484375 1.4550781 3.544922 2.1826172 6.181641 2.1826172zm2.490234-10.3417969h-6.269531c.078125-1.1035157.385742-1.9555664.922851-2.5561524.53711-.6005859 1.279297-.9008789 2.226563-.9008789.947265 0 1.699219.300293 2.255859.9008789.556641.600586.844727 1.4526367.864258 2.5561524z"/><path d="m35.9382215 11.9109162-.4492979-.78577c-.123557-.2148148-.398752-.2883041-.6121685-.1639376l-6.0655227 3.5614035v-.8988304c0-1.4980507-1.2074883-2.7134503-2.6957878-2.7134503h-8.0873635v3.5161793c0 .9044835-.6121685 1.7411306-1.4939157 1.8824562-1.123245.1865497-2.1004681-.6896687-2.1004681-1.7863548v-5.33079923c0-.78011696.398752-1.50370371 1.0558503-1.91637427l1.875819-1.18148148c.6402496-.40136453 1.3815913-.61617934 2.1397816-.61617934h5.7959438l6.6552263-3.78752437c.2134165-.12436647.2920436-.40136452.1684867-.61617934l-.449298-.791423c-.1235569-.21481481-.3987519-.29395711-.6121685-.16959064l-6.2340093 3.56140351h-5.3185648c-1.0951638 0-2.1678627.31091618-3.0945398.89317739l-1.8814352 1.18148148c-.9828393.62183236-1.6118565 1.61676413-1.8084243 2.7417154l-3.51014045 2.09161789c-1.21310453.7348928-1.97129485 2.0746589-1.97129485 3.4992203v2.1820663l-6.96411857 3.9797271c-.21341653.1243665-.29204368.4013645-.16848674.6161793l.44929798.78577c.12355694.2148148.39875195.2939571.61216848.1695906l7.86833073-4.499805v-3.2335283c0-.791423.42121685-1.5376218 1.08954762-1.9446394l2.5048362-1.4923976v3.7253411c0 1.8881092 1.3647425 3.5783626 3.2349454 3.7592593 2.1397815.2091618 3.9538221-1.4867447 3.9538221-3.6009747v-1.8089669h6.2901716c.4942278 0 .898596.4070176.898596.9044835v1.8089668c0 .4974659-.4043682.9044835-.898596.9044835h-1.3478939v2.0350877c0 1.1192982-.8985959 2.0237817-2.0106084 2.0237817h-.9042122v.9044834c0 1.2549708-1.0109204 2.2725146-2.2577223 2.2725146h-6.1441498l-6.49235566 3.8044834c-.21341654.1243665-.28642746.4013646-.16287051.6161794l.44929797.7801169c.12355694.2148149.39875195.2883041.61216848.1639377l6.07675512-3.5557505h5.6611544c1.9544462 0 3.5943838-1.4019493 3.9762871-3.2617934 1.7073322-.3787524 2.9934477-1.9163743 2.9934477-3.7479532v-.265692c.7638065-.1300195 1.3815913-.5992203 1.7859594-1.2267057l7.424649-4.3528265c.2134166-.1243665.2864275-.4013645.1628705-.6161793z" transform="translate(0 6)"/></g></svg>
