<svg viewBox="0 0 189 40" xmlns="http://www.w3.org/2000/svg"><g fill="currentColor" fill-rule="nonzero"><path d="m59.9228516 32v-3.75h-8.6865235v-17.6660156h-4.5410156v21.4160156zm10.2685546.2929688c2.5097657 0 4.4677735-.7519532 5.8740235-2.2558594 1.40625-1.5039063 2.109375-3.5888672 2.109375-6.2548828 0-1.71875-.3222656-3.2177735-.9667969-4.4970704-.6445312-1.2792968-1.5673828-2.2607421-2.7685547-2.9443359-1.2011719-.6835937-2.5878906-1.0253906-4.1601562-1.0253906-2.5292969 0-4.4921875.7421875-5.8886719 2.2265625s-2.0947266 3.5644531-2.0947266 6.2402344c0 1.71875.3222657 3.2226562.9667969 4.5117187.6445313 1.2890625 1.5673828 2.277832 2.7685547 2.9663086s2.5878906 1.0327149 4.1601562 1.0327149zm.0585938-3.5888672c-1.2011719 0-2.0678711-.4150391-2.6000977-1.2451172-.5322265-.8300782-.7983398-2.0556641-.7983398-3.6767578 0-1.6308594.2636719-2.8491211.7910156-3.6547852.5273438-.8056641 1.3867188-1.2084961 2.578125-1.2084961 1.2011719 0 2.0654297.4052735 2.5927735 1.2158203.5273437.8105469.7910156 2.0263672.7910156 3.647461 0 1.6308593-.2612305 2.8588867-.7836914 3.684082-.522461.8251953-1.3793946 1.237793-2.5708008 1.237793zm18.2666016 3.5888672c1.1230468 0 2.0532226-.0878907 2.7905273-.2636719.7373047-.1757813 1.4672852-.4931641 2.1899414-.9521485v-3.8232422c-.7324219.4882813-1.4648437.847168-2.1972656 1.0766602s-1.5283203.3442383-2.3876953.3442383c-2.3242188 0-3.4863282-1.6015625-3.4863282-4.8046875 0-3.3007813 1.1621094-4.9511719 3.4863282-4.9511719.6054687 0 1.2109375.090332 1.8164062.2709961.6054688.1806641 1.2597656.4125977 1.9628906.6958008l1.3183594-3.4570313c-1.5039062-.7421875-3.203125-1.1132812-5.0976562-1.1132812-2.5878906 0-4.5751953.7348633-5.9619141 2.2045898-1.3867187 1.4697266-2.0800781 3.5961914-2.0800781 6.3793946 0 5.5957031 2.5488281 8.3935547 7.6464844 8.3935547zm12.7587894 0c1.279297 0 2.316894-.1831055 3.112793-.5493165.795898-.3662109 1.569824-1.0229492 2.321777-1.9702148h.117187l.864258 2.2265625h3.120117v-10.9130859c0-1.953125-.585937-3.4082032-1.757812-4.3652344-1.171875-.9570313-2.856445-1.4355469-5.053711-1.4355469-2.294922 0-4.3847656.4931641-6.2695312 1.4794922l1.4794921 3.0175781c1.7675781-.7910156 3.3056641-1.1865234 4.6142581-1.1865234 1.699219 0 2.548828.8300781 2.548828 2.4902344v.7177734l-2.841797.0878906c-2.451172.0878907-4.284668.5444336-5.5004883 1.3696289s-1.8237305 2.1069336-1.8237305 3.8452149c0 1.6601562.4516602 2.9394531 1.3549805 3.8378906s2.1411133 1.3476563 3.7133793 1.3476563zm1.68457-3.2666016c-1.445313 0-2.167969-.6298828-2.167969-1.8896484 0-.8789063.317383-1.5332032.952149-1.9628907.634765-.4296875 1.601562-.6640625 2.90039-.703125l1.728516-.0585937v1.3476562c0 .9863282-.310059 1.7773438-.930176 2.3730469s-1.447754.8935547-2.48291.8935547zm18.061523 3.2666016c1.621094 0 2.988282-.2490235 4.101563-.7470704v-3.3251953c-1.09375.3417969-2.03125.5126953-2.8125.5126953-.585938 0-1.057129-.1513672-1.413574-.4541015-.356446-.3027344-.534668-.7714844-.534668-1.40625v-7.8955078h4.584961v-3.3544922h-4.584961v-3.4863281h-2.856446l-1.289062 3.4570312-2.460938 1.4941406v1.8896485h2.138672v7.8955078c0 1.8066406.407715 3.1616211 1.223145 4.0649414.815429.9033203 2.116699 1.3549805 3.903808 1.3549805zm9.653321-18.7060547c.810547 0 1.418457-.1928711 1.82373-.5786133.405274-.3857422.60791-.925293.60791-1.6186524 0-1.45507809-.810547-2.18261715-2.43164-2.18261715-1.621094 0-2.431641.72753906-2.431641 2.18261715 0 1.4648438.810547 2.1972657 2.431641 2.1972657zm2.226562 18.4130859v-16.3769531h-4.467773v16.3769531zm11.586914.2929688c2.509766 0 4.467774-.7519532 5.874024-2.2558594 1.40625-1.5039063 2.109375-3.5888672 2.109375-6.2548828 0-1.71875-.322266-3.2177735-.966797-4.4970704-.644531-1.2792968-1.567383-2.2607421-2.768555-2.9443359-1.201172-.6835937-2.58789-1.0253906-4.160156-1.0253906-2.529297 0-4.492188.7421875-5.888672 2.2265625s-2.094727 3.5644531-2.094727 6.2402344c0 1.71875.322266 3.2226562.966797 4.5117187.644532 1.2890625 1.567383 2.277832 2.768555 2.9663086s2.587891 1.0327149 4.160156 1.0327149zm.058594-3.5888672c-1.201172 0-2.067871-.4150391-2.600098-1.2451172-.532226-.8300782-.798339-2.0556641-.798339-3.6767578 0-1.6308594.263671-2.8491211.791015-3.6547852s1.386719-1.2084961 2.578125-1.2084961c1.201172 0 2.06543.4052735 2.592774 1.2158203.527343.8105469.791015 2.0263672.791015 3.647461 0 1.6308593-.26123 2.8588867-.783691 3.684082s-1.379395 1.237793-2.570801 1.237793zm16.083984 3.2958984v-7.7050781c0-1.9335938.278321-3.3178711.834961-4.1528321.556641-.8349609 1.459961-1.2524414 2.709961-1.2524414.917969 0 1.586914.2954102 2.006836.8862305s.629883 1.4770508.629883 2.6586914v9.5654297h4.467773v-10.6787109c0-1.9433594-.493164-3.4301758-1.479492-4.4604493-.986328-1.0302734-2.43164-1.5454101-4.335937-1.5454101-1.113282 0-2.106934.2026367-2.980957.6079101-.874024.4052735-1.560059 1.003418-2.058106 1.7944336h-.249023l-.600586-2.0947265h-3.413086v16.3769531zm19.6875.2929688c2.324219 0 4.069825-.4394532 5.236817-1.3183594 1.166992-.8789063 1.750488-2.1582032 1.750488-3.8378906 0-.8105469-.141602-1.5087891-.424805-2.0947266s-.722656-1.1035156-1.318359-1.5527344c-.595703-.4492187-1.533203-.9326172-2.8125-1.4501953-1.435547-.5761719-2.365723-1.0107422-2.790527-1.3037109-.424805-.2929688-.637207-.6396485-.637207-1.0400391 0-.7128906.659179-1.0693359 1.977539-1.0693359.742187 0 1.469726.1123046 2.182617.336914.71289.2246094 1.479492.5126953 2.299805.8642578l1.347656-3.2226562c-1.865235-.859375-3.78418-1.2890625-5.756836-1.2890625-2.070313 0-3.669434.3979492-4.797363 1.1938476-1.12793.7958985-1.691895 1.9213868-1.691895 3.3764649 0 .8496094.134277 1.5649414.402832 2.1459961s.698242 1.0961914 1.289063 1.5454101c.59082.4492188 1.516113.9375 2.775878 1.4648438.878907.3710937 1.582032.6958008 2.109376.9741211.527343.2783203.898437.5273437 1.113281.7470703.214843.2197266.322265.5053711.322265.8569336 0 .9375-.810546 1.40625-2.43164 1.40625-.791016 0-1.706543-.131836-2.746582-.3955078-1.040039-.2636719-1.975098-.5908203-2.805176-.9814453v3.6914062c.732422.3125 1.518555.5493164 2.358398.7104492.839844.1611328 1.855469.2416993 3.046875.2416993z"/><path d="m35 10c-.125 0-.25.025-.375.075l-10.625 3.925-.64375-.225c1.45625-2.18125 2.64375-4.45 2.64375-6.0875 0-4.25-3.58125-7.6875-8-7.6875s-8 3.44375-8 7.6875c0 .7375.25 1.6125.65 2.5375l-9.39375 3.275c-.75625.3-1.25625 1.0375-1.25625 1.85625v15.64375c0 .575.46875 1 1 1 .125 0 .25-.025.375-.075l10.625-3.925 10.75 3.79375c.8125.26875 1.6875.275 2.5.0125l9.49375-3.30625c.7625-.30625 1.25625-1.0375 1.25625-1.85625v-15.64375c0-.575-.46875-1-1-1zm-24 16.2375-9.00625 3.325-.08125-14.18125 9.0875-3.15625zm7-24.2375c3.30625 0 6 2.55 6 5.6875 0 1.6875-2.38125 5.55625-6 9.8-3.61875-4.24375-6-8.1125-6-9.8 0-3.1375 2.69375-5.6875 6-5.6875zm5 27.7625-10-3.53125v-11.93125c1.525 2.20625 3.25625 4.25 4.23125 5.35625.2.23125.4875.34375.76875.34375s.5625-.1125.76875-.34375c.8-.90625 2.10625-2.44375 3.39375-4.18125l.8375.29375zm2 .0125v-14.0125l9.00625-3.325.08125 14.18125zm-5.5-21.775c0-.83125-.675-1.5-1.5-1.5s-1.5.66875-1.5 1.5c0 .825.675 1.5 1.5 1.5s1.5-.66875 1.5-1.5z" transform="translate(0 4)"/></g></svg>
