<svg version="1" xmlns="http://www.w3.org/2000/svg" width="933.333" height="933.333" viewBox="0 0 700.000000 700.000000"><path d="M328.5.6c-30.5 3-42.1 4.8-63.1 9.9-47.6 11.7-94.4 34.8-133.9 66.1-14.1 11.3-43.6 40.8-54.9 54.9-40.9 51.6-65.6 110.8-74.2 178-2.5 19.6-2.5 61.4 0 81 8.6 67.2 33.3 126.4 74.2 178 11.3 14.1 40.8 43.6 54.9 54.9 51.6 40.9 110.8 65.6 178 74.2 19.6 2.5 61.4 2.5 81 0 67.2-8.6 126.4-33.3 178-74.2 14.1-11.3 43.6-40.8 54.9-54.9 40.9-51.6 65.6-110.8 74.2-178 2.5-19.6 2.5-61.4 0-81-8.6-67.2-33.3-126.4-74.2-178-11.3-14.1-40.8-43.6-54.9-54.9C517 35.8 457.6 10.9 391 2.5 379.3 1 337.4-.3 328.5.6zm-15.1 159.6c.8 1.8 17.5 53.6 37.2 115.1 19.7 61.4 36.1 111.2 36.5 110.5.4-.7 16.7-51.5 36.3-112.8 19.6-61.3 36-112.5 36.6-113.8l1-2.2h104v332l-39.7-.2-39.8-.3-.3-34.5c-.2-28.8.4-48 3.8-116.4 2.2-45.1 3.9-82 3.7-82.2-.1-.2-16.9 48.6-37.1 108.4-20.3 59.8-38.2 112.4-39.9 116.9l-2.9 8.3h-52.4L321 373.2c-21.6-63.6-39.7-116.4-40.2-117.2-.5-.9-.6 2.2-.3 7.5.3 4.9 2.1 40.9 4 80 2.6 55.4 3.2 73.6 2.5 83-2.7 36.9-7.6 56.8-17.3 70.7-16.1 22.7-41.2 38-71.4 43.3-17.3 3-47.7 1.5-64.8-3.2-9.3-2.5-22.5-8.5-30.2-13.6-9.3-6.2-21.7-19.4-27-28.8-7.5-13.2-13.3-35.2-13.3-50.7V439H141.7l.6 7.7c.7 9.2 3.7 19.4 7.1 24.4 6.4 9.4 22.9 13.2 37.8 8.7 4.6-1.4 13.1-8.6 15.5-13.2 4.9-9.5 4.7-2.6 5-161.4l.4-148.2h104l1.3 3.2z"/></svg>