<svg height="40" viewBox="0 0 240 40" width="240" xmlns="http://www.w3.org/2000/svg"><g><path d="m54.9082031 27.1757812c1.2773438 0 2.4199219-.1904296 3.4277344-.571289v-1.8017578c-.5507813.1699218-1.0810547.309082-1.5908203.4174804-.5097656.1083985-1.0371094.1625977-1.5820313.1625977-1.2597656 0-2.2221679-.4042969-2.887207-1.2128906-.6650391-.8085938-.9975586-2.0009766-.9975586-3.5771485 0-1.5058593.3457031-2.6865234 1.0371094-3.5419922.6914062-.8554687 1.640625-1.2832031 2.8476562-1.2832031.5332032 0 1.0415039.0776367 1.5249024.2329102.4833984.1552734.9418945.3354492 1.3754883.5405273l.7558593-1.7490234c-1.1132812-.5507813-2.3261718-.8261719-3.6386718-.8261719-1.2480469 0-2.334961.2666016-3.2607422.7998047-.9257813.5332031-1.6333008 1.3007812-2.1225586 2.3027344-.4892578 1.0019531-.7338867 2.1708984-.7338867 3.5068359 0 2.1210938.5039062 3.7514649 1.5117187 4.8911133s2.4521485 1.7094726 4.3330078 1.7094726zm9.975586 0c1.453125 0 2.586914-.4453124 3.4013671-1.3359374.8144532-.890625 1.2216797-2.1298829 1.2216797-3.7177735 0-1.5351562-.4101562-2.7553711-1.2304687-3.6606445-.8203125-.9052735-1.9335938-1.3579102-3.3398438-1.3579102-1.4707031 0-2.6103515.4423828-3.4189453 1.3271485-.8085937.8847656-1.2128906 2.1152343-1.2128906 3.6914062 0 1.0136719.1875 1.9042969.5625 2.671875s.9111328 1.3564453 1.6083984 1.7666016c.6972657.4101562 1.5.6152343 2.4082032.6152343zm.0351562-1.6875c-1.6582031 0-2.4873047-1.1220703-2.4873047-3.3662109 0-1.0722656.1948242-1.8955078.5844727-2.4697265.3896484-.5742188 1.0180664-.8613282 1.8852539-.8613282 1.6523437 0 2.4785156 1.1103516 2.4785156 3.3310547 0 2.2441406-.8203125 3.3662109-2.4609375 3.3662109zm9.0263672 1.5117188v-4.8427734c0-1.2070313.1860352-2.0698243.5581055-2.5883789.3720703-.5185547.9565429-.7778321 1.7534179-.7778321.5976563 0 1.0371094.1831055 1.3183594.5493164.28125.366211.421875.9213868.421875 1.6655274v5.9941406h2.0742188v-5.1503906c0-1.0371094.1860351-1.8061524.5581054-2.3071289.3720703-.5009766.9594727-.7514649 1.7622071-.7514649.5976562 0 1.0385742.1831055 1.3227539.5493164.2841797.366211.4262695.9213868.4262695 1.6655274v5.9941406h2.0654297v-6.3369141c0-1.2011718-.2651367-2.0947265-.7954102-2.680664-.5302734-.5859375-1.3754883-.8789063-2.5356445-.8789063-.6738281 0-1.2714844.1347656-1.7929688.4042969-.5214843.2695313-.9257812.6445313-1.2128906 1.125h-.140625c-.4863281-1.0195313-1.4765625-1.5292969-2.9707031-1.5292969-.6152344 0-1.1791992.1259766-1.6918945.3779297s-.9038086.609375-1.1733399 1.0722656h-.1054687l-.2900391-1.274414h-1.6171875v9.7207031zm17.2089844 0v-4.8427734c0-1.2070313.1860351-2.0698243.5581054-2.5883789.3720704-.5185547.956543-.7778321 1.753418-.7778321.5976563 0 1.0371094.1831055 1.3183594.5493164.28125.366211.421875.9213868.421875 1.6655274v5.9941406h2.0742187v-5.1503906c0-1.0371094.1860352-1.8061524.5581055-2.3071289.3720703-.5009766.9594727-.7514649 1.762207-.7514649.5976561 0 1.0385741.1831055 1.3227541.5493164.28418.366211.426269.9213868.426269 1.6655274v5.9941406h2.06543v-6.3369141c0-1.2011718-.265137-2.0947265-.79541-2.680664-.530274-.5859375-1.375488-.8789063-2.535645-.8789063-.6738278 0-1.271484.1347656-1.7929684.4042969s-.9257812.6445313-1.2128906 1.125h-.140625c-.4863281-1.0195313-1.4765625-1.5292969-2.9707031-1.5292969-.6152344 0-1.1791992.1259766-1.6918946.3779297-.5126953.2519531-.9038085.609375-1.1733398 1.0722656h-.1054687l-.2900391-1.274414h-1.6171875v9.7207031zm18.5625001.1757812c.679687 0 1.284668-.1289062 1.814941-.3867187.530274-.2578125.938965-.6123047 1.226074-1.0634766h.105469l.290039 1.2744141h1.625977v-9.7207031h-2.074219v4.8427734c0 1.21875-.203613 2.0874024-.61084 2.605957-.407226.5185547-1.044433.7778321-1.911621.7778321-.65039 0-1.127929-.1860352-1.432617-.5581055s-.457031-.9301758-.457031-1.6743164v-5.9941406h-2.083008v6.3544922c0 1.1894531.290039 2.0771484.870117 2.6630859s1.458984.8789062 2.636719.8789062zm10.072265-.1757812v-4.8427734c0-1.2128907.202149-2.0771485.606446-2.5927735s1.042969-.7734375 1.916015-.7734375c.65625 0 1.135254.1845703 1.437012.553711.301758.3691406.452637.9287109.452637 1.6787109v5.9765625h2.074219v-6.3369141c0-2.3730468-1.166016-3.5595703-3.498047-3.5595703-.65625 0-1.253906.1259766-1.792969.3779297s-.955078.609375-1.248047 1.0722656h-.105469l-.290039-1.274414h-1.617187v9.7207031zm10.40625-11.1621094c.363282 0 .645997-.1010742.848145-.3032226.202148-.2021485.303223-.4790039.303223-.8305664 0-.3691407-.101075-.6533204-.303223-.8525391s-.484863-.2988281-.848145-.2988281c-.375 0-.663574.0996094-.865722.2988281-.202149.1992187-.303223.4833984-.303223.8525391 0 .3515625.101074.6284179.303223.8305664.202148.2021484.490722.3032226.865722.3032226zm1.019532 11.1621094v-9.7207031h-2.06543v9.7207031zm6.873047.1757812c.597656 0 1.105957-.046875 1.524902-.140625s.812988-.2490234 1.182129-.4658203v-1.8017578c-.820313.4570313-1.69043.6855469-2.610352.6855469-.808593 0-1.422363-.2739258-1.841308-.8217773-.418946-.5478516-.628418-1.3666993-.628418-2.456543 0-2.2324219.84082-3.3486328 2.522461-3.3486328.568359 0 1.289062.1699219 2.162109.5097656l.624024-1.6611328c-.820313-.3808594-1.743165-.5712891-2.768555-.5712891-1.511719 0-2.667481.4394532-3.467285 1.3183594-.799805.8789062-1.199707 2.1357422-1.199707 3.7705078 0 1.6054688.382324 2.8374024 1.146972 3.6958008.764649.8583984 1.882325 1.2875976 3.353028 1.2875976zm7.347656 0c.744141 0 1.353515-.1069335 1.828125-.3208007.474609-.2138672.946289-.6166993 1.415039-1.2084961h.070312l.413086 1.3535156h1.476563v-6.5478516c0-1.1542968-.314942-2.0009765-.944824-2.540039-.629883-.5390625-1.562989-.8085938-2.799317-.8085938-.55664 0-1.148437.0717774-1.77539.2153321-.626953.1435546-1.204102.3530273-1.731446.6284179l.667969 1.4765625c.421875-.1992187.861328-.3720703 1.318359-.5185547.457032-.1464843.934571-.2197265 1.432618-.2197265.609375 0 1.059082.1538086 1.349121.4614258.290039.3076171.435058.7719726.435058 1.3930664v.5185547l-1.678711.0527343c-1.523437.046875-2.657226.3251953-3.401367.834961-.74414.5097656-1.116211 1.265625-1.116211 2.2675781 0 .9433594.268067 1.6728516.804199 2.1884766.536133.515625 1.281739.7734374 2.236817.7734374zm.650391-1.5820312c-.515626 0-.902344-.1186523-1.160157-.355957-.257812-.2373047-.386719-.5727539-.386719-1.0063477 0-.5976562.221192-1.0415039.663575-1.331543.442383-.290039 1.149902-.4526367 2.122558-.4877929l1.248047-.0527344v.84375c0 .7558594-.227051 1.3432617-.681152 1.762207-.454102.4189453-1.056152.628418-1.806152.628418zm10.564453 1.5820312c.386718 0 .760254-.0336914 1.120605-.1010742.360352-.0673828.654785-.1508789.883301-.2504882v-1.5556641c-.503906.1582031-1.007813.2373047-1.511719.2373047-.404297 0-.730957-.1186524-.97998-.3559571-.249024-.2373046-.373536-.6049804-.373536-1.1030273v-5.203125h2.768555v-1.5644531h-2.768555v-2.1621094h-1.274414l-.703125 2.0566406-1.423828.7558594v.9140625h1.327149v5.2382812c0 2.0625.978515 3.09375 2.935547 3.09375zm4.992187-11.3378906c.363281 0 .645996-.1010742.848145-.3032226.202148-.2021485.303222-.4790039.303222-.8305664 0-.3691407-.101074-.6533204-.303222-.8525391-.202149-.1992187-.484864-.2988281-.848145-.2988281-.375 0-.663574.0996094-.865723.2988281-.202148.1992187-.303222.4833984-.303222.8525391 0 .3515625.101074.6284179.303222.8305664.202149.2021484.490723.3032226.865723.3032226zm1.019531 11.1621094v-9.7207031h-2.065429v9.7207031zm6.952149.1757812c1.453125 0 2.586914-.4453124 3.401367-1.3359374s1.22168-2.1298829 1.22168-3.7177735c0-1.5351562-.410157-2.7553711-1.230469-3.6606445-.820313-.9052735-1.933594-1.3579102-3.339844-1.3579102-1.470703 0-2.610351.4423828-3.418945 1.3271485-.808594.8847656-1.212891 2.1152343-1.212891 3.6914062 0 1.0136719.1875 1.9042969.5625 2.671875s.911133 1.3564453 1.608399 1.7666016c.697265.4101562 1.5.6152343 2.408203.6152343zm.035156-1.6875c-1.658203 0-2.487305-1.1220703-2.487305-3.3662109 0-1.0722656.194825-1.8955078.584473-2.4697265.389648-.5742188 1.018066-.8613282 1.885254-.8613282 1.652344 0 2.478516 1.1103516 2.478516 3.3310547 0 2.2441406-.820313 3.3662109-2.460938 3.3662109zm9.026367 1.5117188v-4.8427734c0-1.2128907.202149-2.0771485.606446-2.5927735.404296-.515625 1.042968-.7734375 1.916015-.7734375.65625 0 1.135254.1845703 1.437012.553711.301758.3691406.452637.9287109.452637 1.6787109v5.9765625h2.074218v-6.3369141c0-2.3730468-1.166015-3.5595703-3.498047-3.5595703-.65625 0-1.253906.1259766-1.792968.3779297-.539063.2519531-.955078.609375-1.248047 1.0722656h-.105469l-.290039-1.274414h-1.617187v9.7207031z"/><path d="m17.859411 0c-9.66476282 0-17.49773184 6.4421875-17.49773184 14.3928571 0 3.29375 1.36017525 6.3107143 3.61574224 8.739509-1.01842267 2.7263393-3.13728863 5.0375-3.17146389 5.0651785-.4511134.484375-.57414433 1.1901786-.31441237 1.7991072s.85438144 1.0033482 1.51054638 1.0033482c4.20355668 0 7.51855665-1.7783482 9.50755668-3.2037946 1.9753298.6296875 4.1078659.9895089 6.3497628.9895089 9.6647628 0 17.4977319-6.4421875 17.4977319-14.3928572 0-7.9506696-7.8329691-14.3928571-17.4977319-14.3928571zm0 26.5714286c-1.9343196 0-3.848134-.2975447-5.6867628-.8857143l-1.0389279-.3321429-.8885567.6366072c-1.57206181 1.1279018-3.9985051 2.4426339-7.01276281 2.7401785.82020618-1.044866 2.03684535-2.7955357 2.78870101-4.8160714l.48528866-1.2939732-.93640205-1.0102679c-1.97532989-2.1174107-3.02109277-4.6154017-3.02109277-7.2171875 0-6.71205353 6.86922676-12.17857139 15.31051536-12.17857139s15.3105154 5.46651786 15.3105154 12.17857139c0 6.7120536-6.8692268 12.1785715-15.3105154 12.1785715zm5.180969-9.0439732c-1.2849896 1.529241-3.1714638 2.401116-5.180969 2.401116-2.0095051 0-3.8959793-.871875-5.180969-2.3941964-.389598-.4636161-1.0799382-.5120536-1.5378866-.1245536-.4647835.4013393-.5126289 1.0933036-.1230309 1.5638393 1.6950927 2.0136161 4.1898865 3.1691964 6.8418865 3.1691964s5.1467938-1.1555803 6.8487216-3.176116c.396433-.4636161.3349175-1.1625-.1230309-1.5638393-.4579485-.3944197-1.1482887-.3390625-1.5447217.1245536zm-9.555402-4.7953125c.9090619 0 1.6404124-.7404018 1.6404124-1.6607143s-.7313505-1.66071431-1.6404124-1.66071431c-.9090618 0-1.6404123.74040181-1.6404123 1.66071431s.7313505 1.6607143 1.6404123 1.6607143zm8.748866 0c.9090618 0 1.6404123-.7404018 1.6404123-1.6607143s-.7313505-1.66071431-1.6404123-1.66071431c-.9090619 0-1.6404124.74040181-1.6404124 1.66071431s.7313505 1.6607143 1.6404124 1.6607143z" transform="translate(4 5)"/></g></svg>