<svg height="40" viewBox="0 0 240 40" width="240" xmlns="http://www.w3.org/2000/svg"><g fill="#000" fill-rule="nonzero"><path d="m53.2910156 27c2.2148438 0 3.9111328-.5610352 5.0888672-1.6831055s1.7666016-2.7436523 1.7666016-4.8647461c0-1.9980468-.5683594-3.5478515-1.7050782-4.649414-1.1367187-1.1015625-2.727539-1.6523438-4.7724609-1.6523438h-3.9726562v12.8496094zm0-1.7666016h-1.4941406v-9.3251953h1.8193359c2.8769532 0 4.3154297 1.538086 4.3154297 4.6142578 0 3.140625-1.546875 4.7109375-4.640625 4.7109375zm13.3945313 1.9423828c1.453125 0 2.586914-.4453124 3.4013672-1.3359374.8144531-.890625 1.2216797-2.1298829 1.2216797-3.7177735 0-1.5351562-.4101563-2.7553711-1.2304688-3.6606445-.8203125-.9052735-1.9335938-1.3579102-3.3398438-1.3579102-1.4707031 0-2.6103515.4423828-3.4189453 1.3271485-.8085937.8847656-1.2128906 2.1152343-1.2128906 3.6914062 0 1.0136719.1875 1.9042969.5625 2.671875s.9111328 1.3564453 1.6083985 1.7666016c.6972656.4101562 1.5.6152343 2.4082031.6152343zm.0351562-1.6875c-1.6582031 0-2.4873047-1.1220703-2.4873047-3.3662109 0-1.0722656.1948243-1.8955078.5844727-2.4697265.3896484-.5742188 1.0180664-.8613282 1.8852539-.8613282 1.6523438 0 2.4785156 1.1103516 2.4785156 3.3310547 0 2.2441406-.8203125 3.3662109-2.4609375 3.3662109zm10.8808594 1.6875c.5976563 0 1.105957-.046875 1.5249023-.140625.4189454-.09375.8129883-.2490234 1.182129-.4658203v-1.8017578c-.8203126.4570313-1.6904297.6855469-2.6103516.6855469-.8085938 0-1.4223633-.2739258-1.8413086-.8217773-.4189453-.5478516-.628418-1.3666993-.628418-2.456543 0-2.2324219.8408203-3.3486328 2.522461-3.3486328.5683593 0 1.2890625.1699219 2.1621093.5097656l.6240235-1.6611328c-.8203125-.3808594-1.7431641-.5712891-2.7685547-.5712891-1.5117188 0-2.6674805.4394532-3.4672852 1.3183594s-1.199707 2.1357422-1.199707 3.7705078c0 1.6054688.3823242 2.8374024 1.1469727 3.6958008.7646484.8583984 1.8823242 1.2875976 3.3530273 1.2875976zm8.4111328 0c.6796875 0 1.284668-.1289062 1.8149414-.3867187.5302735-.2578125.9389649-.6123047 1.2260742-1.0634766h.1054688l.2900391 1.2744141h1.6259765v-9.7207031h-2.0742187v4.8427734c0 1.21875-.2036133 2.0874024-.6108399 2.605957-.4072265.5185547-1.0444336.7778321-1.9116211.7778321-.6503906 0-1.1279297-.1860352-1.4326172-.5581055s-.4570312-.9301758-.4570312-1.6743164v-5.9941406h-2.0830078v6.3544922c0 1.1894531.290039 2.0771484.8701172 2.6630859.5800781.5859375 1.4589843.8789062 2.6367187.8789062zm10.0722656-.1757812v-4.8427734c0-1.2070313.1860352-2.0698243.5581055-2.5883789.3720703-.5185547.956543-.7778321 1.753418-.7778321.5976562 0 1.0371094.1831055 1.3183594.5493164.28125.366211.4218752.9213868.4218752 1.6655274v5.9941406h2.074219v-5.1503906c0-1.0371094.186035-1.8061524.558105-2.3071289.37207-.5009766.959473-.7514649 1.762207-.7514649.597656 0 1.038574.1831055 1.322754.5493164.28418.366211.426269.9213868.426269 1.6655274v5.9941406h2.06543v-6.3369141c0-1.2011718-.265137-2.0947265-.79541-2.680664s-1.375488-.8789063-2.535645-.8789063c-.673828 0-1.271484.1347656-1.792968.4042969-.521485.2695313-.925782.6445313-1.212891 1.125h-.140625c-.486328-1.0195313-1.476562-1.5292969-2.9707031-1.5292969-.6152343 0-1.1791992.1259766-1.6918945.3779297s-.9038086.609375-1.1733398 1.0722656h-.1054688l-.290039-1.274414h-1.6171876v9.7207031zm19.3886721.1757812c.662109 0 1.250976-.0498046 1.766601-.149414s1.025391-.2695313 1.529297-.5097656v-1.678711c-.568359.2519532-1.100097.4321289-1.595215.5405274-.495117.1083984-1.029785.1625976-1.604004.1625976-.873046 0-1.549804-.2534179-2.030273-.7602539-.480469-.5068359-.735351-1.2319336-.764648-2.1752929h6.477539v-1.116211c0-1.3652344-.372071-2.4375-1.116211-3.2167969-.744141-.7792968-1.757813-1.1689453-3.041016-1.1689453-1.382812 0-2.469726.4541016-3.260742 1.3623047s-1.186523 2.15625-1.186523 3.7441406c0 1.546875.426269 2.7612305 1.278808 3.6430664.852539.881836 2.034668 1.3227539 3.546387 1.3227539zm1.749023-6.0644531h-4.412109c.076172-.796875.312012-1.4033203.707519-1.8193359.395508-.4160156.921387-.6240234 1.577637-.6240234s1.171875.2065429 1.546875.6196289c.375.4130859.56836 1.0209961.580078 1.8237304zm6.442383 5.8886719v-4.8427734c0-1.2128907.202149-2.0771485.606445-2.5927735.404297-.515625 1.042969-.7734375 1.916016-.7734375.65625 0 1.135254.1845703 1.437012.553711.301758.3691406.452636.9287109.452636 1.6787109v5.9765625h2.074219v-6.3369141c0-2.3730468-1.166015-3.5595703-3.498047-3.5595703-.65625 0-1.253906.1259766-1.792968.3779297-.539063.2519531-.955079.609375-1.248047 1.0722656h-.105469l-.290039-1.274414h-1.617188v9.7207031zm12.489258.1757812c.386719 0 .760254-.0336914 1.120605-.1010742.360352-.0673828.654786-.1508789.883301-.2504882v-1.5556641c-.503906.1582031-1.007812.2373047-1.511719.2373047-.404296 0-.730957-.1186524-.97998-.3559571-.249024-.2373046-.373535-.6049804-.373535-1.1030273v-5.203125h2.768554v-1.5644531h-2.768554v-2.1621094h-1.274414l-.703125 2.0566406-1.423828.7558594v.9140625h1.327148v5.2382812c0 2.0625.978516 3.09375 2.935547 3.09375zm6.301758 0c.74414 0 1.353515-.1069335 1.828125-.3208007.474609-.2138672.946289-.6166993 1.415039-1.2084961h.070312l.413086 1.3535156h1.476563v-6.5478516c0-1.1542968-.314942-2.0009765-.944825-2.540039-.629882-.5390625-1.562988-.8085938-2.799316-.8085938-.556641 0-1.148437.0717774-1.775391.2153321-.626953.1435546-1.204101.3530273-1.731445.6284179l.667969 1.4765625c.421875-.1992187.861328-.3720703 1.318359-.5185547.457031-.1464843.934571-.2197265 1.432617-.2197265.609375 0 1.059082.1538086 1.349122.4614258.290039.3076171.435058.7719726.435058 1.3930664v.5185547l-1.678711.0527343c-1.523437.046875-2.657226.3251953-3.401367.834961-.744141.5097656-1.116211 1.265625-1.116211 2.2675781 0 .9433594.268066 1.6728516.804199 2.1884766s1.281739.7734374 2.236817.7734374zm.65039-1.5820312c-.515625 0-.902343-.1186523-1.160156-.355957-.257812-.2373047-.386719-.5727539-.386719-1.0063477 0-.5976562.221192-1.0415039.663575-1.331543.442382-.290039 1.149902-.4526367 2.122558-.4877929l1.248047-.0527344v.84375c0 .7558594-.227051 1.3432617-.681152 1.762207-.454102.4189453-1.056153.628418-1.806153.628418zm10.564453 1.5820312c.386719 0 .760254-.0336914 1.120606-.1010742.360351-.0673828.654785-.1508789.883301-.2504882v-1.5556641c-.503907.1582031-1.007813.2373047-1.511719.2373047-.404297 0-.730957-.1186524-.979981-.3559571-.249023-.2373046-.373535-.6049804-.373535-1.1030273v-5.203125h2.768555v-1.5644531h-2.768555v-2.1621094h-1.274414l-.703125 2.0566406-1.423828.7558594v.9140625h1.327149v5.2382812c0 2.0625.978515 3.09375 2.935546 3.09375zm4.992188-11.3378906c.363281 0 .645996-.1010742.848144-.3032226.202149-.2021485.303223-.4790039.303223-.8305664 0-.3691407-.101074-.6533204-.303223-.8525391-.202148-.1992187-.484863-.2988281-.848144-.2988281-.375 0-.663574.0996094-.865723.2988281-.202148.1992187-.303222.4833984-.303222.8525391 0 .3515625.101074.6284179.303222.8305664.202149.2021484.490723.3032226.865723.3032226zm1.019531 11.1621094v-9.7207031h-2.065429v9.7207031zm6.952149.1757812c1.453125 0 2.586914-.4453124 3.401367-1.3359374s1.221679-2.1298829 1.221679-3.7177735c0-1.5351562-.410156-2.7553711-1.230468-3.6606445-.820313-.9052735-1.933594-1.3579102-3.339844-1.3579102-1.470703 0-2.610352.4423828-3.418945 1.3271485-.808594.8847656-1.212891 2.1152343-1.212891 3.6914062 0 1.0136719.1875 1.9042969.5625 2.671875s.911133 1.3564453 1.608398 1.7666016c.697266.4101562 1.5.6152343 2.408204.6152343zm.035156-1.6875c-1.658203 0-2.487305-1.1220703-2.487305-3.3662109 0-1.0722656.194824-1.8955078.584473-2.4697265.389648-.5742188 1.018066-.8613282 1.885254-.8613282 1.652344 0 2.478515 1.1103516 2.478515 3.3310547 0 2.2441406-.820312 3.3662109-2.460937 3.3662109zm9.026367 1.5117188v-4.8427734c0-1.2128907.202149-2.0771485.606445-2.5927735.404297-.515625 1.042969-.7734375 1.916016-.7734375.65625 0 1.135254.1845703 1.437012.553711.301758.3691406.452636.9287109.452636 1.6787109v5.9765625h2.074219v-6.3369141c0-2.3730468-1.166015-3.5595703-3.498047-3.5595703-.65625 0-1.253906.1259766-1.792968.3779297-.539063.2519531-.955079.609375-1.248047 1.0722656h-.105469l-.290039-1.274414h-1.617188v9.7207031z"/><path d="m25.3871528 19.1025391 1.2152778-1.2109375c.2309027-.2300782.6197916-.0666016.6197916.2542968v9.9478516c0 1.6044922-1.3064236 2.90625-2.9166666 2.90625h-21.38888893c-1.61024306 0-2.91666667-1.3017578-2.91666667-2.90625v-21.3125c0-1.60449219 1.30642361-2.90625 2.91666667-2.90625h17.76128473c.3220486 0 .4861111.39355469.2552083.61757813l-1.2152778 1.2109375c-.0668402.06660156-.1640625.10898437-.2552083.10898437h-16.54600693c-.53472223 0-.97222223.4359375-.97222223.96875v21.3125c0 .5328125.4375.96875.97222223.96875h21.38888893c.5347222 0 .9722222-.4359375.9722222-.96875v-8.7369141c0-.096875.0364583-.1876953.109375-.2542968zm8.8654514-11.57656254-18.9887153 18.92089844-6.07031251.6720703c-.81423611.0908203-1.50086806-.5933594-1.40972222-1.4046875l.67447916-6.0486328 18.98871527-18.92089844c.9965278-.99296875 2.6128472-.99296875 3.609375 0l3.1961806 3.18476563c.9965277.99296875.9965277 2.60351562 0 3.59648437zm-5.6875 2.93046874-4.0529514-4.03847655-14.1944445 14.13769535-.50434024 4.5470703 4.56336804-.5025391zm4.3142361-5.15859374-3.1961806-3.18476562c-.2309028-.23007813-.6197916-.2421875-.8567708 0l-2.9409722 2.93046875 4.0529514 4.03847656 2.9409722-2.93046875c.2369791-.23007813.2369791-.61757813 0-.85371094z" transform="translate(5 5)"/></g></svg>