<svg height="40" viewBox="0 0 158 40" width="158" xmlns="http://www.w3.org/2000/svg"><g fill="none" transform="translate(0 2)"><g transform="translate(122)"><circle cx="18" cy="18" fill="#000" r="18"/><path d="m11.9671875 24.5197265c-1.6757896 0-3.03925256-.5503362-4.09042969-1.6510253-1.05117712-1.1006891-1.57675781-2.5726959-1.57675781-4.4160645v-.3884765c0-1.2263734.23422617-2.3213331.70268555-3.2849122.46845937-.963579 1.12353095-1.717673 1.96523437-2.2623047.84170343-.5446316 1.75385258-.8169433 2.73647458-.8169433 1.6072346 0 2.8564409.5293893 3.7476563 1.5881836.8912153 1.0587943 1.3368164 2.5745995 1.3368164 4.5474609v.8797852h-8.37509767c.03046891 1.2187561.38656885 2.2032677 1.06831052 2.9535645.68174175.7502967 1.54818815 1.1254394 2.59936525 1.1254394.7464882 0 1.3787084-.1523422 1.8966797-.4570313.5179713-.304689.9711895-.7083958 1.359668-1.2111328l1.2911133 1.0054688c-1.0359427 1.5920002-2.5898335 2.3879882-4.6617188 2.3879882zm-.262793-11.0830077c-.8531292 0-1.5691377.3103973-2.14804681.9312012-.57890918.6208038-.93691341 1.4910588-1.07402347 2.610791h6.19277348v-.159961c-.0609378-1.0740288-.3503881-1.9061982-.8683594-2.4965332-.5179714-.5903349-1.2187456-.885498-2.1023438-.885498zm11.8904297 3.0049804 2.7421875-4.5131836h2.4679687l-4.0447265 6.112793 4.1704101 6.2499024h-2.4451172l-2.8564453-4.6274415-2.8564453 4.6274415h-2.456543l4.1704102-6.2499024-4.0447266-6.112793h2.4451172z" fill="#fff"/></g><path d="m16.1132812 29v-2.9589844h-10.23925776v-6.5625h8.75976566v-2.9296875h-8.75976566v-5.8886719h10.13671876v-2.9882812h-13.84277345v21.328125zm6.2587891 0 3.1494141-5.4199219 3.1640625 5.4199219h3.9257812l-5.0097656-8.0419922 4.8486328-7.8076172h-3.9550781l-3.0175781 5.2148438-2.9589844-5.2148438h-3.9257813l4.8339844 7.8076172-5.0097656 8.0419922zm17.0546875 6.09375v-7.5146484c1.0449219 1.1425781 2.4365234 1.7138672 4.1748047 1.7138672 1.875 0 3.3691406-.7299805 4.4824219-2.1899415 1.1132812-1.4599609 1.6699218-3.4155273 1.6699218-5.8666992v-.2197265c0-2.5585938-.5493164-4.5581055-1.6479492-5.9985352s-2.6147461-2.1606445-4.5483398-2.1606445c-1.796875 0-3.2177734.6347656-4.2626953 1.9042969l-.1464844-1.6113282h-3.28125v21.9433594zm3.1640625-8.6425781c-1.4648437 0-2.5195312-.6152344-3.1640625-1.8457031v-7.03125c.6347656-1.2011719 1.6796875-1.8017579 3.1347656-1.8017579 1.171875 0 2.0727539.4638672 2.7026368 1.3916016.6298828.9277344.9448242 2.1826172.9448242 3.7646484 0 1.8554688-.3198242 3.2397461-.9594727 4.1528321-.6396484.9130859-1.5258789 1.3696289-2.6586914 1.3696289zm14.7255859 2.5488281v-10.8398438c.5664063-1.25 1.6650391-1.875 3.2958985-1.875.4980469 0 .9814453.0390626 1.4501953.1171876l.0146484-3.3398438c-.3320312-.1367188-.7519531-.2050781-1.2597656-.2050781-1.5234375 0-2.7148437.6884765-3.5742187 2.0654297l-.0878907-1.772461h-3.3984375v15.8496094zm14.6962891.2929688c1.3183594 0 2.5073242-.2612305 3.5668945-.7836915 1.0595704-.5224609 1.9067383-1.2573242 2.541504-2.2045898l-1.9189454-1.8310547c-1.0253906 1.3183594-2.3535156 1.9775391-3.984375 1.9775391-1.1621093 0-2.1264648-.3808594-2.8930664-1.1425781-.7666015-.7617188-1.2036132-1.796875-1.3110351-3.1054688h10.3564453v-1.4355469c0-2.5195312-.5883789-4.4677734-1.7651367-5.8447265-1.1767578-1.3769532-2.8442383-2.0654297-5.0024414-2.0654297-1.3574219 0-2.5878907.3466797-3.6914063 1.040039-1.1035156.6933594-1.9604492 1.6625977-2.5708008 2.9077149-.6103515 1.2451172-.9155273 2.6586914-.9155273 4.2407226v.4394532c0 2.3632812.7006836 4.2553711 2.1020508 5.6762695s3.2299804 2.1313477 5.4858398 2.1313477zm2.8417969-9.6972657h-6.7822266c.1660156-1.2207031.5493164-2.1728515 1.1499024-2.8564453.6005859-.6835937 1.3891601-1.0253906 2.3657226-1.0253906.9863282 0 1.7578125.3051758 2.3144532.9155273.5566406.6103516.8740234 1.5112305.9521484 2.7026367zm13.2460937 9.6972657c1.9140625 0 3.4619141-.4418946 4.6435547-1.3256836 1.1816406-.8837891 1.772461-2.0385743 1.772461-3.4643555 0-.8496094-.1928711-1.5722656-.5786133-2.1679688-.3857422-.5957031-.9765625-1.105957-1.772461-1.5307617-.7958984-.4248047-1.8920898-.7910156-3.2885742-1.0986328-1.3964843-.3076172-2.3242187-.612793-2.7832031-.9155273-.4589844-.3027344-.6884766-.7275391-.6884766-1.2744141 0-.6054688.2465821-1.0888672.7397461-1.4501953.4931641-.3613281 1.1303711-.5419922 1.9116211-.5419922.8398438 0 1.5136719.2270508 2.0214844.6811523.5078125.4541016.7617188 1.0229493.7617188 1.706543h3.5595703c0-1.4941406-.5834961-2.7099609-1.7504883-3.6474609s-2.6977539-1.40625-4.5922852-1.40625c-1.7773437 0-3.2421875.4589843-4.3945312 1.3769531-1.1523438.9179688-1.7285156 2.0605469-1.7285156 3.4277344 0 1.6308594.8886718 2.8759765 2.6660156 3.7353515.8105468.390625 1.821289.7128907 3.0322265.9667969 1.2109375.2539063 2.0776368.546875 2.6000977.8789063.5224609.3320312.7836914.8154297.7836914 1.4501953 0 .5761718-.2441406 1.0424804-.7324219 1.3989258-.4882812.3564453-1.2011719.5346679-2.1386719.5346679-.9667968 0-1.743164-.2270508-2.3291015-.6811523-.5859375-.4541016-.9033203-1.1010742-.9521485-1.940918h-3.4570312c0 .9472656.2832031 1.8310547.8496094 2.6513672.5664062.8203125 1.3574218 1.4648438 2.3730468 1.9335938s2.1728516.703125 3.4716797.703125zm16.4833981 0c1.914063 0 3.461914-.4418946 4.643555-1.3256836 1.181641-.8837891 1.772461-2.0385743 1.772461-3.4643555 0-.8496094-.192871-1.5722656-.578613-2.1679688-.385742-.5957031-.976563-1.105957-1.772461-1.5307617-.795899-.4248047-1.89209-.7910156-3.288574-1.0986328-1.396485-.3076172-2.324219-.612793-2.783204-.9155273-.458984-.3027344-.688476-.7275391-.688476-1.2744141 0-.6054688.246582-1.0888672.739746-1.4501953s1.130371-.5419922 1.911621-.5419922c.839844 0 1.513672.2270508 2.021484.6811523.507813.4541016.761719 1.0229493.761719 1.706543h3.55957c0-1.4941406-.583496-2.7099609-1.750488-3.6474609s-2.697754-1.40625-4.592285-1.40625c-1.777344 0-3.242187.4589843-4.394531 1.3769531-1.1523439.9179688-1.7285158 2.0605469-1.7285158 3.4277344 0 1.6308594.8886719 2.8759765 2.6660158 3.7353515.810547.390625 1.821289.7128907 3.032226.9667969 1.210938.2539063 2.077637.546875 2.600098.8789063.522461.3320312.783691.8154297.783691 1.4501953 0 .5761718-.24414 1.0424804-.732421 1.3989258-.488282.3564453-1.201172.5346679-2.138672.5346679-.966797 0-1.743164-.2270508-2.329102-.6811523-.585937-.4541016-.90332-1.1010742-.952148-1.940918h-3.4570316c0 .9472656.2832032 1.8310547.8496094 2.6513672.5664063.8203125 1.3574222 1.4648438 2.3730472 1.9335938s2.172851.703125 3.471679.703125z" fill="#000"/></g></svg>