<svg height="40" viewBox="0 0 240 40" width="240" xmlns="http://www.w3.org/2000/svg"><g><path d="m54.6972656 27 4.5-12.8496094h-2.1796875l-2.680664 7.9541016c-.0996094.28125-.2285157.7148437-.3867188 1.3007812s-.2753906 1.1015625-.3515625 1.546875c-.046875-.2929687-.149414-.7397461-.3076172-1.340332-.1582031-.6005859-.3076172-1.0913086-.4482422-1.472168l-2.680664-7.9892578h-2.1621094l4.4824219 12.8496094zm7.022461-11.1621094c.3632812 0 .6459961-.1010742.8481445-.3032226.2021484-.2021485.3032227-.4790039.3032227-.8305664 0-.3691407-.1010743-.6533204-.3032227-.8525391s-.4848633-.2988281-.8481445-.2988281c-.375 0-.6635743.0996094-.8657227.2988281s-.3032227.4833984-.3032227.8525391c0 .3515625.1010743.6284179.3032227.8305664.2021484.2021484.4907227.3032226.8657227.3032226zm1.0195312 11.1621094v-9.7207031h-2.0654297v9.7207031zm6.2314453.1757812c1.2773438 0 2.2470703-.4833984 2.9091797-1.4501953h.0966797l.3603516 1.2744141h1.6171875v-13.6757812h-2.0742188v3.5419921c0 .4042969.0498047.9550782.1494141 1.6523438h-.1054688c-.6679687-.9433594-1.640625-1.4150391-2.9179687-1.4150391-1.21875 0-2.1723633.4438477-2.8608399 1.331543-.6884765.8876953-1.0327148 2.128418-1.0327148 3.722168 0 1.5878906.3398437 2.821289 1.0195312 3.7001953.6796875.8789062 1.6259766 1.3183593 2.8388672 1.3183593zm.553711-1.6699218c-.7617188 0-1.3330079-.2827149-1.7138672-.8481446-.3808594-.5654296-.5712891-1.387207-.5712891-2.465332 0-1.0898437.1962891-1.9291992.5888672-2.5180664s.9521484-.8833008 1.6787109-.8833008c.8496094 0 1.4736329.2578125 1.8720703.7734375.3984376.515625.5976563 1.3857422.5976563 2.6103516v.2900391c-.0117187 1.0722656-.2109375 1.8471679-.5976563 2.324707-.3867187.477539-1.0048828.7163086-1.8544921.7163086zm11.6279297 1.6699218c.6621093 0 1.2509765-.0498046 1.7666015-.149414s1.0253906-.2695313 1.5292969-.5097656v-1.678711c-.5683594.2519532-1.1000977.4321289-1.5952149.5405274-.4951171.1083984-1.0297851.1625976-1.6040039.1625976-.8730468 0-1.5498046-.2534179-2.0302734-.7602539-.4804688-.5068359-.7353516-1.2319336-.7646484-2.1752929h6.477539v-1.116211c0-1.3652344-.3720703-2.4375-1.1162109-3.2167969-.7441406-.7792968-1.7578125-1.1689453-3.0410156-1.1689453-1.3828125 0-2.4697266.4541016-3.2607422 1.3623047-.7910157.9082031-1.1865235 2.15625-1.1865235 3.7441406 0 1.546875.4262696 2.7612305 1.2788086 3.6430664.8525391.881836 2.034668 1.3227539 3.5463868 1.3227539zm1.7490234-6.0644531h-4.4121094c.0761719-.796875.3120117-1.4033203.7075195-1.8193359.3955079-.4160156.9213868-.6240234 1.5776368-.6240234s1.171875.2065429 1.546875.6196289c.375.4130859.5683593 1.0209961.5800781 1.8237304zm8.3759766 6.0644531c1.453125 0 2.586914-.4453124 3.4013671-1.3359374.8144532-.890625 1.2216797-2.1298829 1.2216797-3.7177735 0-1.5351562-.4101562-2.7553711-1.2304687-3.6606445-.8203125-.9052735-1.9335938-1.3579102-3.3398438-1.3579102-1.4707031 0-2.6103515.4423828-3.4189453 1.3271485-.8085937.8847656-1.2128906 2.1152343-1.2128906 3.6914062 0 1.0136719.1875 1.9042969.5625 2.671875s.9111328 1.3564453 1.6083984 1.7666016c.6972656.4101562 1.5.6152343 2.4082032.6152343zm.0351562-1.6875c-1.6582031 0-2.4873047-1.1220703-2.4873047-3.3662109 0-1.0722656.1948242-1.8955078.5844727-2.4697265.3896484-.5742188 1.0180664-.8613282 1.8852539-.8613282 1.6523437 0 2.4785156 1.1103516 2.4785156 3.3310547 0 2.2441406-.8203125 3.3662109-2.4609375 3.3662109zm17.305664 1.6875c.826172 0 1.595215-.0527343 2.307129-.1582031.711914-.1054687 1.45459-.2841797 2.228027-.5361328v-6.4511719h-4.728515v1.8017578h2.663086v3.3134766c-.773438.1699219-1.5.2548828-2.179688.2548828-1.347656 0-2.380371-.4086914-3.098144-1.2260742-.717774-.8173828-1.076661-2.0112305-1.076661-3.581543 0-1.4941406.398438-2.671875 1.195313-3.5332031s1.880859-1.2919922 3.251953-1.2919922c1.042969 0 2.085938.2402344 3.128906.7207031l.738282-1.7490234c-1.201172-.515625-2.472657-.7734375-3.814454-.7734375-2.085937 0-3.723632.5844727-4.913086 1.753418-1.189453 1.1689453-1.784179 2.7875976-1.784179 4.855957 0 2.0976563.527344 3.722168 1.582031 4.8735352 1.054688 1.1513672 2.554688 1.7270507 4.5 1.7270507zm9.755859 0c.744141 0 1.353516-.1069335 1.828125-.3208007.47461-.2138672.94629-.6166993 1.41504-1.2084961h.070312l.413086 1.3535156h1.476562v-6.5478516c0-1.1542968-.314941-2.0009765-.944824-2.540039s-1.562988-.8085938-2.799316-.8085938c-.556641 0-1.148438.0717774-1.775391.2153321-.626953.1435546-1.204101.3530273-1.731445.6284179l.667969 1.4765625c.421875-.1992187.861328-.3720703 1.318359-.5185547.457031-.1464843.93457-.2197265 1.432617-.2197265.609375 0 1.059082.1538086 1.349121.4614258.290039.3076171.435059.7719726.435059 1.3930664v.5185547l-1.678711.0527343c-1.523438.046875-2.657227.3251953-3.401367.834961-.744141.5097656-1.116211 1.265625-1.116211 2.2675781 0 .9433594.268066 1.6728516.804199 2.1884766s1.281738.7734374 2.236816.7734374zm.650391-1.5820312c-.515625 0-.902344-.1186523-1.160156-.355957-.257813-.2373047-.386719-.5727539-.386719-1.0063477 0-.5976562.221191-1.0415039.663574-1.331543.442383-.290039 1.149903-.4526367 2.122559-.4877929l1.248047-.0527344v.84375c0 .7558594-.227051 1.3432617-.681153 1.762207-.454101.4189453-1.056152.628418-1.806152.628418zm9.500977 1.40625v-4.8427734c0-1.2070313.186035-2.0698243.558105-2.5883789.37207-.5185547.956543-.7778321 1.753418-.7778321.597656 0 1.037109.1831055 1.318359.5493164.28125.366211.421875.9213868.421875 1.6655274v5.9941406h2.074219v-5.1503906c0-1.0371094.186035-1.8061524.558106-2.3071289.37207-.5009766.959472-.7514649 1.762207-.7514649.597656 0 1.038574.1831055 1.322754.5493164.284179.366211.426269.9213868.426269 1.6655274v5.9941406h2.06543v-6.3369141c0-1.2011718-.265137-2.0947265-.79541-2.680664-.530274-.5859375-1.375489-.8789063-2.535645-.8789063-.673828 0-1.271484.1347656-1.792969.4042969-.521484.2695313-.925781.6445313-1.21289 1.125h-.140625c-.486328-1.0195313-1.476563-1.5292969-2.970703-1.5292969-.615235 0-1.1792.1259766-1.691895.3779297s-.903808.609375-1.17334 1.0722656h-.105468l-.29004-1.274414h-1.617187v9.7207031zm19.388671.1757812c.66211 0 1.250977-.0498046 1.766602-.149414s1.025391-.2695313 1.529297-.5097656v-1.678711c-.568359.2519532-1.100098.4321289-1.595215.5405274-.495117.1083984-1.029785.1625976-1.604004.1625976-.873047 0-1.549804-.2534179-2.030273-.7602539-.480469-.5068359-.735352-1.2319336-.764649-2.1752929h6.477539v-1.116211c0-1.3652344-.37207-2.4375-1.116211-3.2167969-.74414-.7792968-1.757812-1.1689453-3.041015-1.1689453-1.382813 0-2.469727.4541016-3.260742 1.3623047-.791016.9082031-1.186524 2.15625-1.186524 3.7441406 0 1.546875.42627 2.7612305 1.278809 3.6430664.852539.881836 2.034668 1.3227539 3.546386 1.3227539zm1.749024-6.0644531h-4.412109c.076171-.796875.312011-1.4033203.707519-1.8193359s.921387-.6240234 1.577637-.6240234 1.171875.2065429 1.546875.6196289c.375.4130859.568359 1.0209961.580078 1.8237304zm6.899414 6.0644531c1.289062 0 2.279297-.2534179 2.970703-.7602539.691406-.5068359 1.037109-1.2348632 1.037109-2.184082 0-.46875-.08789-.871582-.263671-1.2084961-.175782-.336914-.445313-.6342773-.808594-.8920898s-.946289-.5419922-1.749024-.8525391c-.955078-.3691406-1.574707-.6591797-1.858886-.8701172-.28418-.2109375-.42627-.46875-.42627-.7734375 0-.6210937.544922-.9316406 1.634766-.9316406.714844 0 1.596679.2167969 2.645508.6503906l.667968-1.555664c-1.019531-.4628907-2.100586-.694336-3.243164-.694336-1.154297 0-2.066894.2299805-2.737793.6899414-.670898.459961-1.006347 1.1059571-1.006347 1.9379883 0 .6914063.197754 1.2539063.593261 1.6875.395508.4335938 1.152832.8671875 2.271973 1.3007813.574219.2226562 1.022461.421875 1.344727.5976562.322265.1757813.553711.3457031.694336.5097656s.210937.3691407.210937.6152344c0 .7675781-.635742 1.1513672-1.907227 1.1513672-.984374 0-2.047851-.2636719-3.190429-.7910156v1.7841797c.785156.3925781 1.825195.5888671 3.120117.5888671z"/><path d="m12 18h2v-6h-2zm10 0h2v-6h-2zm12-13h-2c-1.1041175.00109042-1.9989096.89588248-2 2v1h-4v-2h2c1.1041175-.00109042 1.9989096-.89588248 2-2v-2c-.0010904-1.10411752-.8958825-1.99890958-2-2h-2c-1.1041175.00109042-1.9989096.89588248-2 2h-2c-1.1041175.00109042-1.9989096.89588248-2 2v2h-4v-2c-.0010904-1.10411752-.8958825-1.99890958-2-2h-2c-.0010904-1.10411752-.8958825-1.99890958-2-2h-2c-1.10411752.00109042-1.99890958.89588248-2 2v2c.00109042 1.10411752.89588248 1.99890958 2 2h2v2h-4v-1c-.00109042-1.10411752-.89588248-1.99890958-2-2h-2c-1.10411752.00109042-1.99890958.89588248-2 2v9c.00109042 1.1041175.89588248 1.9989096 2 2h2v2c.00109042 1.1041175.89588248 1.9989096 2 2h2v4c.00109042 1.1041175.89588248 1.9989096 2 2h5c1.1041175-.0010904 1.9989096-.8958825 2-2v-2c-.0010904-1.1041175-.8958825-1.9989096-2-2h6c-1.1041175.0010904-1.9989096.8958825-2 2v2c.0010904 1.1041175.8958825 1.9989096 2 2h5c1.1041175-.0010904 1.9989096-.8958825 2-2v-4h2c1.1041175-.0010904 1.9989096-.8958825 2-2v-2h2c1.1041175-.0010904 1.9989096-.8958825 2-2v-9c-.0010904-1.10411752-.8958825-1.99890958-2-2zm-8-3h2v2h-2zm-18 2v-2h2v2zm7 22h-5v-4h2v2h3zm11 0h-5v-2h3v-2h2zm8-10h-4v4h-24v-4h-4v-9h2v7h2v-4h6v-6h2v4h8v-4h2v6h6v4h2v-7h2z" transform="translate(4 6)"/></g></svg>