<svg viewBox="0 0 628 236" xmlns="http://www.w3.org/2000/svg"><g fill="currentColor" fill-rule="evenodd"><path d="m47.9003906 5.859375h25.6347657v73.1689453c0 6.7871433-1.5746913 12.8417703-4.7241211 18.1640625-3.1494299 5.3222922-7.5439172 9.4482272-13.1835938 12.3779292-5.6396766 2.929703-11.9262349 4.394532-18.8598633 4.394532-11.6211518 0-20.6542646-2.929658-27.09960935-8.789063-6.44534473-5.859404-9.66796875-14.1601023-9.66796875-24.9023435h25.78125c0 4.8828369.8422767 8.4228406 2.5268555 10.6201172 1.6845787 2.1972766 4.5043747 3.2958984 8.4594726 3.2958984 3.564471 0 6.3110255-1.3305531 8.2397461-3.9916992s2.8930664-6.3842534 2.8930664-11.1694336zm86.6943354 106.640625c-.878911-1.611336-1.660153-3.979477-2.34375-7.104492-4.541038 5.712919-10.888631 8.569336-19.042969 8.569336-7.47074 0-13.8183329-2.258278-19.0429684-6.774903-5.2246355-4.516624-7.8369141-10.1928365-7.8369141-17.0288082 0-8.593793 3.1737964-15.0878686 9.5214844-19.4824219 6.3476881-4.3945532 15.5761111-6.5917968 27.6855471-6.5917968h7.617187v-4.1748047c0-7.275427-3.149382-10.913086-9.448242-10.913086-5.859404 0-8.789062 2.8808306-8.789062 8.6425782h-24.6826176c0-7.666054 3.2592447-13.8915777 9.777832-18.6767578 6.5185876-4.7851802 14.8314926-7.1777344 24.9389646-7.1777344 10.107473 0 18.090791 2.4657956 23.950196 7.3974609 5.859404 4.9316653 8.862304 11.694293 9.008789 20.2880859v35.0830079c.097656 7.2754269 1.220692 12.8417779 3.36914 16.6992189v1.245117zm-15.454101-16.1132812c3.076187 0 5.627431-.6591731 7.653808-1.9775391s3.479-2.8076089 4.35791-4.4677735v-12.6708984h-7.177734c-8.593793 0-12.890625 3.8573833-12.890625 11.5722656 0 2.246105.756828 4.0649345 2.270508 5.456543 1.513679 1.3916085 3.442371 2.0874024 5.786133 2.0874024zm99.731444-40.7958985-8.129882-.5859375c-7.763711 0-12.74413 2.4413818-14.941407 7.3242188v50.1708984h-24.682617v-79.2480469h23.144531l.805664 10.1806641c4.150412-7.7637107 9.936487-11.6455078 17.358399-11.6455078 2.636732 0 4.931631.2929658 6.884765.8789062zm47.216797 58.3740237c-12.158264 0-21.997033-3.625452-29.516602-10.876465-7.519569-7.2510129-11.279297-16.6869537-11.279297-28.3081056v-2.0507812c0-8.1055093 1.50145-15.2587581 4.504395-21.459961 3.002944-6.2012028 7.385225-10.9985181 13.146972-14.3920898 5.761748-3.3935716 12.597617-5.090332 20.507813-5.090332 11.132868 0 19.921843 3.4545553 26.367187 10.3637695 6.445345 6.9092142 9.667969 16.5404656 9.667969 28.894043v9.5947265h-49.072265c.87891 4.4433816 2.807602 7.9345577 5.786132 10.4736328 2.978531 2.5390752 6.835914 3.8085938 11.572266 3.8085938 7.812539 0 13.915994-2.7343477 18.310547-8.203125l11.279297 13.330078c-3.076188 4.248068-7.434054 7.629382-13.073731 10.144043-5.639676 2.514661-11.70651 3.771973-18.200683 3.771973zm-2.783203-63.1347659c-7.226599 0-11.523431 4.7851084-12.890625 14.3554688h24.902343v-1.9042969c.097657-3.9550979-.90331-7.0190321-3.002929-9.1918945-2.09962-2.1728625-5.10252-3.2592774-9.008789-3.2592774zm44.360351 21.459961c0-12.5488909 2.709933-22.4364873 8.129882-29.663086 5.419949-7.2265986 12.988233-10.8398437 22.705079-10.8398437 7.080113 0 13.037085 2.7831753 17.871093 8.3496094v-40.1367188h24.75586v112.5h-22.192383l-1.245117-8.496094c-5.078151 6.640658-11.523399 9.960938-19.335938 9.960938-9.423875 0-16.894503-3.613245-22.412109-10.839844-5.517606-7.2265986-8.276367-17.5048162-8.276367-30.8349609zm24.682617 1.5380859c0 14.0625703 4.101521 21.09375 12.304687 21.09375 5.468778 0 9.374989-2.2948989 11.71875-6.8847656v-30.1757813c-2.246105-4.6875234-6.103488-7.03125-11.572265-7.03125-7.617226 0-11.743161 6.1522823-12.37793 18.4570313z"/><path d="m168.18457 127.859375 23.803711 74.194336 23.730469-74.194336h33.837891v106.640625h-25.78125v-24.902344l2.490234-50.976562-25.78125 75.878906h-16.992188l-25.854492-75.952148 2.490235 51.049804v24.902344h-25.708008v-106.640625zm136.279297 108.105469c-12.158264 0-21.997033-3.625452-29.516602-10.876465s-11.279297-16.686954-11.279297-28.308106v-2.050781c0-8.105509 1.50145-15.258758 4.504395-21.459961 3.002944-6.201203 7.385225-10.998518 13.146972-14.39209 5.761748-3.393571 12.597617-5.090332 20.507813-5.090332 11.132868 0 19.921843 3.454556 26.367187 10.36377 6.445345 6.909214 9.667969 16.540465 9.667969 28.894043v9.594726h-49.072265c.87891 4.443382 2.807602 7.934558 5.786132 10.473633 2.978531 2.539075 6.835914 3.808594 11.572266 3.808594 7.812539 0 13.915994-2.734348 18.310547-8.203125l11.279297 13.330078c-3.076188 4.248068-7.434054 7.629382-13.073731 10.144043-5.639676 2.514661-11.70651 3.771973-18.200683 3.771973zm-2.783203-63.134766c-7.226599 0-11.523431 4.785109-12.890625 14.355469h24.902343v-1.904297c.097657-3.955098-.90331-7.019032-3.002929-9.191895-2.09962-2.172862-5.10252-3.259277-9.008789-3.259277zm92.114257 61.669922c-.878911-1.611336-1.660153-3.979477-2.34375-7.104492-4.541038 5.712919-10.888631 8.569336-19.042969 8.569336-7.47074 0-13.818333-2.258278-19.042969-6.774903-5.224635-4.516624-7.836914-10.192837-7.836914-17.028808 0-8.593793 3.173797-15.087869 9.521485-19.482422s15.576111-6.591797 27.685547-6.591797h7.617187v-4.174805c0-7.275427-3.149383-10.913086-9.448242-10.913086-5.859404 0-8.789063 2.880831-8.789063 8.642579h-24.682617c0-7.666054 3.259245-13.891578 9.777832-18.676758s14.831493-7.177735 24.938965-7.177735 18.090791 2.465796 23.950195 7.397461c5.859405 4.931666 8.862304 11.694293 9.008789 20.288086v35.083008c.097657 7.275427 1.220693 12.841778 3.369141 16.699219v1.245117zm-15.454102-16.113281c3.076188 0 5.627432-.659173 7.653809-1.977539s3.478999-2.807609 4.35791-4.467774v-12.670898h-7.177734c-8.593793 0-12.890625 3.857383-12.890625 11.572265 0 2.246105.756828 4.064935 2.270508 5.456543 1.513679 1.391609 3.442371 2.087403 5.786132 2.087403zm83.618164-13.403321-6.958008 6.958008v22.558594h-24.682617v-112.573242h24.682617v59.765625l2.490234-3.295899 18.603516-23.144531h29.589844l-27.758789 32.592774 29.589843 46.655273h-28.271484zm77.612304 29.516602h-24.755859v-79.248047h24.755859zm-26.220703-99.682617c0-3.515643 1.269518-6.396473 3.808594-8.642578 2.539075-2.246105 5.83494-3.369141 9.887695-3.369141s7.34862 1.123036 9.887695 3.369141c2.539076 2.246105 3.808594 5.126935 3.808594 8.642578 0 3.515642-1.269518 6.396473-3.808594 8.642578-2.539075 2.246105-5.83494 3.369141-9.887695 3.369141s-7.34862-1.123036-9.887695-3.369141c-2.539076-2.246105-3.808594-5.126936-3.808594-8.642578zm65.454101 20.43457.805664 9.301758c5.468777-7.17777 13.012647-10.766602 22.631836-10.766602 8.251994 0 14.416484 2.465796 18.493652 7.397461 4.077169 4.931666 6.188964 12.353466 6.33545 22.265625v51.049805h-24.75586v-50.024414c0-4.003926-.805656-6.945791-2.416992-8.825684-1.611336-1.879892-4.540994-2.819824-8.789062-2.819824-4.834009 0-8.42284 1.904278-10.766602 5.712891v55.957031h-24.682617v-79.248047z"/></g></svg>
