<svg viewBox="0 0 925 115" xmlns="http://www.w3.org/2000/svg"><g fill="currentColor" fill-rule="evenodd"><path d="m47.9003906 5.859375h25.6347657v73.1689453c0 6.7871433-1.5746913 12.8417703-4.7241211 18.1640625-3.1494299 5.3222922-7.5439172 9.4482272-13.1835938 12.3779292-5.6396766 2.929703-11.9262349 4.394532-18.8598633 4.394532-11.6211518 0-20.6542646-2.929658-27.09960935-8.789063-6.44534473-5.859404-9.66796875-14.1601023-9.66796875-24.9023435h25.78125c0 4.8828369.8422767 8.4228406 2.5268555 10.6201172 1.6845787 2.1972766 4.5043747 3.2958984 8.4594726 3.2958984 3.564471 0 6.3110255-1.3305531 8.2397461-3.9916992s2.8930664-6.3842534 2.8930664-11.1694336zm86.6943354 106.640625c-.878911-1.611336-1.660153-3.979477-2.34375-7.104492-4.541038 5.712919-10.888631 8.569336-19.042969 8.569336-7.47074 0-13.8183329-2.258278-19.0429684-6.774903-5.2246355-4.516624-7.8369141-10.1928365-7.8369141-17.0288082 0-8.593793 3.1737964-15.0878686 9.5214844-19.4824219 6.3476881-4.3945532 15.5761111-6.5917968 27.6855471-6.5917968h7.617187v-4.1748047c0-7.275427-3.149382-10.913086-9.448242-10.913086-5.859404 0-8.789062 2.8808306-8.789062 8.6425782h-24.6826176c0-7.666054 3.2592447-13.8915777 9.777832-18.6767578 6.5185876-4.7851802 14.8314926-7.1777344 24.9389646-7.1777344 10.107473 0 18.090791 2.4657956 23.950196 7.3974609 5.859404 4.9316653 8.862304 11.694293 9.008789 20.2880859v35.0830079c.097656 7.2754269 1.220692 12.8417779 3.36914 16.6992189v1.245117zm-15.454101-16.1132812c3.076187 0 5.627431-.6591731 7.653808-1.9775391s3.479-2.8076089 4.35791-4.4677735v-12.6708984h-7.177734c-8.593793 0-12.890625 3.8573833-12.890625 11.5722656 0 2.246105.756828 4.0649345 2.270508 5.456543 1.513679 1.3916085 3.442371 2.0874024 5.786133 2.0874024zm99.731444-40.7958985-8.129882-.5859375c-7.763711 0-12.74413 2.4413818-14.941407 7.3242188v50.1708984h-24.682617v-79.2480469h23.144531l.805664 10.1806641c4.150412-7.7637107 9.936487-11.6455078 17.358399-11.6455078 2.636732 0 4.931631.2929658 6.884765.8789062zm47.216797 58.3740237c-12.158264 0-21.997033-3.625452-29.516602-10.876465-7.519569-7.2510129-11.279297-16.6869537-11.279297-28.3081056v-2.0507812c0-8.1055093 1.50145-15.2587581 4.504395-21.459961 3.002944-6.2012028 7.385225-10.9985181 13.146972-14.3920898 5.761748-3.3935716 12.597617-5.090332 20.507813-5.090332 11.132868 0 19.921843 3.4545553 26.367187 10.3637695 6.445345 6.9092142 9.667969 16.5404656 9.667969 28.894043v9.5947265h-49.072265c.87891 4.4433816 2.807602 7.9345577 5.786132 10.4736328 2.978531 2.5390752 6.835914 3.8085938 11.572266 3.8085938 7.812539 0 13.915994-2.7343477 18.310547-8.203125l11.279297 13.330078c-3.076188 4.248068-7.434054 7.629382-13.073731 10.144043-5.639676 2.514661-11.70651 3.771973-18.200683 3.771973zm-2.783203-63.1347659c-7.226599 0-11.523431 4.7851084-12.890625 14.3554688h24.902343v-1.9042969c.097657-3.9550979-.90331-7.0190321-3.002929-9.1918945-2.09962-2.1728625-5.10252-3.2592774-9.008789-3.2592774zm44.360351 21.459961c0-12.5488909 2.709933-22.4364873 8.129882-29.663086 5.419949-7.2265986 12.988233-10.8398437 22.705079-10.8398437 7.080113 0 13.037085 2.7831753 17.871093 8.3496094v-40.1367188h24.75586v112.5h-22.192383l-1.245117-8.496094c-5.078151 6.640658-11.523399 9.960938-19.335938 9.960938-9.423875 0-16.894503-3.613245-22.412109-10.839844-5.517606-7.2265986-8.276367-17.5048162-8.276367-30.8349609zm24.682617 1.5380859c0 14.0625703 4.101521 21.09375 12.304687 21.09375 5.468778 0 9.374989-2.2948989 11.71875-6.8847656v-30.1757813c-2.246105-4.6875234-6.103488-7.03125-11.572265-7.03125-7.617226 0-11.743161 6.1522823-12.37793 18.4570313z"/><path d="m465.764648 5.93261719 23.803711 74.19433591 23.730469-74.19433591h33.837891v106.64062481h-25.78125v-24.9023436l2.490234-50.9765625-25.78125 75.8789061h-16.992187l-25.854493-75.9521482 2.490235 51.0498046v24.9023436h-25.708008v-106.64062481zm136.279297 108.10546881c-12.158264 0-21.997033-3.625452-29.516602-10.876465-7.519569-7.2510127-11.279297-16.6869535-11.279297-28.3081054v-2.0507812c0-8.1055093 1.50145-15.2587581 4.504395-21.459961 3.002945-6.2012028 7.385225-10.9985182 13.146973-14.3920898 5.761747-3.3935717 12.597616-5.090332 20.507812-5.090332 11.132868 0 19.921843 3.4545553 26.367188 10.3637695 6.445344 6.9092142 9.667968 16.5404656 9.667968 28.894043v9.5947265h-49.072265c.87891 4.4433816 2.807602 7.9345576 5.786133 10.4736328 2.97853 2.5390752 6.835913 3.8085938 11.572265 3.8085938 7.812539 0 13.915994-2.7343477 18.310547-8.203125l11.279297 13.3300778c-3.076187 4.248068-7.434054 7.629382-13.073731 10.144043-5.639676 2.514661-11.70651 3.771973-18.200683 3.771973zm-2.783203-63.1347657c-7.226599 0-11.523431 4.7851084-12.890625 14.3554688h24.902343v-1.9042969c.097657-3.9550979-.903309-7.0190321-3.002929-9.1918945-2.09962-2.1728625-5.10252-3.2592774-9.008789-3.2592774zm92.114257 61.6699217c-.878911-1.611336-1.660153-3.979476-2.34375-7.104492-4.541038 5.712919-10.888631 8.569336-19.042969 8.569336-7.47074 0-13.818333-2.258278-19.042968-6.774902-5.224636-4.516625-7.836915-10.1928373-7.836915-17.028809 0-8.593793 3.173797-15.0878687 9.521485-19.4824219s15.576111-6.5917969 27.685547-6.5917969h7.617187v-4.1748046c0-7.275427-3.149382-10.913086-9.448242-10.913086-5.859404 0-8.789062 2.8808306-8.789062 8.6425782h-24.682618c0-7.666054 3.259245-13.8915777 9.777832-18.6767579 6.518588-4.7851801 14.831493-7.1777343 24.938965-7.1777343 10.107473 0 18.090791 2.4657956 23.950196 7.3974609 5.859404 4.9316653 8.862303 11.694293 9.008789 20.2880859v35.0830078c.097656 7.2754268 1.220692 12.8417778 3.36914 16.6992188v1.245117zm-15.454102-16.1132811c3.076188 0 5.627432-.6591731 7.653809-1.977539 2.026377-1.318366 3.479-2.8076089 4.35791-4.4677735v-12.6708984h-7.177734c-8.593793 0-12.890625 3.8573833-12.890625 11.5722656 0 2.246105.756828 4.0649345 2.270508 5.456543 1.513679 1.3916085 3.442371 2.0874023 5.786132 2.0874023zm83.618164-13.4033203-6.958008 6.9580078v22.5585936h-24.682617v-112.573242h24.682617v59.765625l2.490235-3.2958984 18.603515-23.1445313h29.589844l-27.758789 32.5927735 29.589844 46.6552732h-28.271485zm77.612304 29.5166014h-24.755859v-79.2480467h24.755859zm-26.220703-99.682617c0-3.51564258 1.269519-6.39647314 3.808594-8.64257812 2.539075-2.24610499 5.83494-3.36914063 9.887695-3.36914063s7.34862 1.12303564 9.887695 3.36914063c2.539076 2.24610498 3.808594 5.12693554 3.808594 8.64257812 0 3.5156426-1.269518 6.3964731-3.808594 8.6425781-2.539075 2.246105-5.83494 3.3691407-9.887695 3.3691407s-7.34862-1.1230357-9.887695-3.3691407-3.808594-5.1269355-3.808594-8.6425781zm65.454101 20.4345703.805664 9.3017578c5.468778-7.1777702 13.012647-10.7666015 22.631836-10.7666015 8.251995 0 14.416484 2.4657956 18.493652 7.3974609 4.077169 4.9316653 6.188965 12.3534661 6.33545 22.265625v51.0498045h-24.75586v-50.0244139c0-4.0039262-.805656-6.9457914-2.416992-8.8256836s-4.540994-2.8198242-8.789062-2.8198242c-4.834009 0-8.42284 1.9042778-10.766602 5.7128906v55.9570311h-24.682617v-79.2480467z"/></g></svg>
