<svg height="40" viewBox="0 0 116 40" width="116" xmlns="http://www.w3.org/2000/svg"><g transform="translate(0 2)"><path d="m16 36c-.4785714 0-.9642857-.1285714-1.3857143-.3714286l-4.4071428-2.6071428c-.6571429-.3714286-.33571433-.5-.1214286-.5714286.8785714-.3071429 1.0571428-.3714286 1.9928571-.9071429.1-.0571428.2285715-.0357142.3285715.0285715l3.3857142 2.0071428c.1214286.0714286.2928572.0714286.4071429 0l13.1928571-7.6142857c.1214286-.0714286.2-.2142857.2-.3571428v-15.2285715c0-.15-.0785714-.2857143-.2071428-.3642857l-13.1857143-7.60714284c-.1214286-.07142857-.2857143-.07142857-.4071429 0l-13.17857139 7.61428574c-.12857142.0714285-.20714285.2142857-.20714285.3642857v15.2214286c0 .1428571.07857143.2857142.20714285.35l3.61428572 2.0857142c1.96428571.9785715 3.16428571-.1714285 3.16428571-1.3357142v-15.0285715c0-.2142857.17142857-.3785714.38571429-.3785714h1.67142857c.2071429 0 .3857143.1642857.3857143.3785714v15.0357143c0 2.6142857-1.4285714 4.1142857-3.90714287 4.1142857-.76428572 0-1.36428572 0-3.03571429-.8285714l-3.45714285-1.9928571c-.85714286-.4928572-1.38571429-1.4142858-1.38571429-2.4071429v-15.2214286c0-.98571426.52857143-1.91428569 1.38571429-2.40714283l13.17857141-7.61428571c.8357143-.47142857 1.9428572-.47142857 2.7714286 0l13.1928571 7.62142857c.8571429.49285714 1.3857143 1.41428571 1.3857143 2.40714287v15.2214286c0 .9857142-.5285714 1.9071428-1.3857143 2.4071428l-13.1928571 7.6142857c-.4214286.2428572-.9.3714286-1.3857143.3714286zm10.65-15.0071429c0-2.85-1.9285714-3.6071428-5.9785714-4.1428571-4.1-.5428571-4.5142857-.8214286-4.5142857-1.7785714 0-.7928572.35-1.85 3.3857142-1.85 2.7071429 0 3.7071429.5857143 4.1214286 2.4142857.0357143.1714286.1928572.3.3714286.3h1.7142857c.1071429 0 .2071429-.0428572.2785714-.1214286.0714286-.0785714.1071429-.1857143.1-.2928571-.2642857-3.15-2.3571428-4.6142857-6.5857143-4.6142857-3.7642857 0-6.0071428 1.5857142-6.0071428 4.25 0 2.8857142 2.2357143 3.6857142 5.8428571 4.0428571 4.3214286.4214286 4.6571429 1.0571429 4.6571429 1.9071429 0 1.4714285-1.1857143 2.1-3.9642857 2.1-3.4928572 0-4.2571429-.8785715-4.5142857-2.6142858-.0285715-.1857142-.1857143-.3214285-.3785715-.3214285h-1.7071428c-.2142857 0-.3785715.1714285-.3785715.3785714 0 2.2214286 1.2071429 4.8714286 6.9857143 4.8714286 4.1714286-.0071429 6.5714286-1.6571429 6.5714286-4.5285715z" transform="translate(84)"/><path d="m5.87402344 29v-15.1318359l9.50683596 15.1318359h3.7060547v-21.328125h-3.6767579v15.1904297l-9.53613276-15.1904297h-3.70605469v21.328125zm24.96484376.2929688c1.4648437 0 2.7563476-.3369141 3.8745117-1.0107422 1.1181641-.6738282 1.9775391-1.6259766 2.578125-2.8564454.6005859-1.2304687.9008789-2.6269531.9008789-4.1894531l-.0146484-.8349609c-.1074219-2.2753906-.8276367-4.1015625-2.1606446-5.4785156-1.3330078-1.3769532-3.0688476-2.0654297-5.2075195-2.0654297-1.4453125 0-2.7246094.3344726-3.8378906 1.0034179-1.1132813.6689454-1.9775391 1.6259766-2.5927735 2.8710938-.6152343 1.2451172-.9228515 2.644043-.9228515 4.1967773v.1757813c0 2.4804687.6713867 4.465332 2.0141601 5.9545898 1.3427735 1.4892578 3.1323243 2.2338868 5.3686524 2.2338868zm0-2.8417969c-1.2011719 0-2.1386719-.4614258-2.8125-1.3842774-.6738281-.9228515-1.0107422-2.199707-1.0107422-3.8305664 0-1.8359375.3417969-3.215332 1.0253906-4.1381836.6835938-.9228515 1.6064453-1.3842773 2.7685547-1.3842773 1.1816406 0 2.1166992.46875 2.8051758 1.40625s1.0327148 2.2070312 1.0327148 3.8085937c0 1.8066407-.3344726 3.178711-1.0034179 4.116211s-1.6040039 1.40625-2.8051758 1.40625zm16.9228516 2.8417969c1.7773437 0 3.1982421-.6445313 4.2626953-1.9335938l.1757812 1.640625h3.2226563v-22.5h-3.5595704v8.1152344c-1.0351562-1.171875-2.3925781-1.7578125-4.0722656-1.7578125-1.9042968 0-3.4228515.7397461-4.555664 2.2192383-1.1328125 1.4794921-1.6992188 3.4399414-1.6992188 5.8813476 0 2.5683594.5737305 4.5996094 1.7211914 6.09375 1.147461 1.4941406 2.6489258 2.241211 4.5043946 2.241211zm.9082031-2.9003907c-1.1425781 0-2.0239258-.4516601-2.644043-1.3549804-.6201172-.9033204-.9301758-2.1606446-.9301758-3.7719727 0-1.8359375.3125-3.2104492.9375-4.1235352.625-.9130859 1.5136719-1.3696289 2.6660157-1.3696289 1.4550781 0 2.5097656.6347657 3.1640624 1.9042969v6.7675781c-.6738281 1.2988282-1.7382812 1.9482422-3.1933593 1.9482422zm18.446289 2.9003907c1.3183594 0 2.5073243-.2612305 3.5668946-.7836915 1.0595703-.5224609 1.9067383-1.2573242 2.5415039-2.2045898l-1.9189453-1.8310547c-1.0253907 1.3183594-2.3535157 1.9775391-3.984375 1.9775391-1.1621094 0-2.1264649-.3808594-2.8930664-1.1425781-.7666016-.7617188-1.2036133-1.796875-1.3110352-3.1054688h10.3564453v-1.4355469c0-2.5195312-.5883789-4.4677734-1.7651367-5.8447265-1.1767578-1.3769532-2.8442383-2.0654297-5.0024414-2.0654297-1.3574219 0-2.5878906.3466797-3.6914063 1.040039-1.1035156.6933594-1.9604492 1.6625977-2.5708007 2.9077149-.6103516 1.2451172-.9155274 2.6586914-.9155274 4.2407226v.4394532c0 2.3632812.7006836 4.2553711 2.1020508 5.6762695s3.2299805 2.1313477 5.4858398 2.1313477zm2.8417969-9.6972657h-6.7822266c.1660157-1.2207031.5493165-2.1728515 1.1499024-2.8564453.6005859-.6835937 1.3891602-1.0253906 2.3657226-1.0253906.9863282 0 1.7578126.3051758 2.3144532.9155273.5566406.6103516.8740234 1.5112305.9521484 2.7026367z"/></g></svg>