<svg height="40" viewBox="0 0 240 40" width="240" xmlns="http://www.w3.org/2000/svg"><g fill="#000" fill-rule="nonzero"><path d="m51.796875 27v-4.8076172h1.3359375c1.6230469 0 2.8740234-.3574219 3.7529297-1.0722656.8789062-.7148438 1.3183594-1.7431641 1.3183594-3.084961 0-1.2773437-.3999024-2.2441406-1.1997071-2.9003906s-2.0024414-.984375-3.6079101-.984375h-3.7001953v12.8496094zm1.1162109-6.5742188h-1.1162109v-4.5175781h1.4589844c.9550781 0 1.6582031.1816407 2.109375.5449219.4511718.3632812.6767578.9140625.6767578 1.6523438 0 .796875-.2519531 1.3828124-.7558594 1.7578124-.5039062.375-1.2949219.5625-2.3730469.5625zm11.8828125 6.75c.6621094 0 1.2509766-.0498046 1.7666016-.149414s1.0253906-.2695313 1.5292969-.5097656v-1.678711c-.5683594.2519532-1.1000977.4321289-1.5952149.5405274-.4951172.1083984-1.0297851.1625976-1.6040039.1625976-.8730469 0-1.5498047-.2534179-2.0302734-.7602539-.4804688-.5068359-.7353516-1.2319336-.7646485-2.1752929h6.4775391v-1.116211c0-1.3652344-.3720703-2.4375-1.1162109-3.2167969-.7441406-.7792968-1.7578125-1.1689453-3.0410156-1.1689453-1.3828126 0-2.4697266.4541016-3.2607422 1.3623047-.7910157.9082031-1.1865235 2.15625-1.1865235 3.7441406 0 1.546875.4262696 2.7612305 1.2788086 3.6430664.8525391.881836 2.034668 1.3227539 3.5463867 1.3227539zm1.7490235-6.0644531h-4.4121094c.0761719-.796875.3120117-1.4033203.7075195-1.8193359s.9213868-.6240234 1.5776368-.6240234 1.171875.2065429 1.546875.6196289c.375.4130859.5683593 1.0209961.5800781 1.8237304zm8.3759765 6.0644531c1.453125 0 2.5869141-.4453124 3.4013672-1.3359374.8144532-.890625 1.2216797-2.1298829 1.2216797-3.7177735 0-1.5351562-.4101562-2.7553711-1.2304687-3.6606445-.8203125-.9052735-1.9335938-1.3579102-3.3398438-1.3579102-1.4707031 0-2.6103516.4423828-3.4189453 1.3271485-.8085937.8847656-1.2128906 2.1152343-1.2128906 3.6914062 0 1.0136719.1875 1.9042969.5625 2.671875s.9111328 1.3564453 1.6083984 1.7666016c.6972656.4101562 1.5.6152343 2.4082031.6152343zm.0351563-1.6875c-1.6582031 0-2.4873047-1.1220703-2.4873047-3.3662109 0-1.0722656.1948242-1.8955078.5844727-2.4697265.3896484-.5742188 1.0180664-.8613282 1.8852539-.8613282 1.6523437 0 2.4785156 1.1103516 2.4785156 3.3310547 0 2.2441406-.8203125 3.3662109-2.4609375 3.3662109zm9.0263672 5.8359376v-3.9814454c0-.1757812-.0410157-.6738281-.1230469-1.4941406h.1230469c.6796875.8847656 1.6347656 1.3271484 2.8652343 1.3271484 1.2128907 0 2.1635743-.4453124 2.8520508-1.3359374.6884766-.890625 1.0327149-2.1298829 1.0327149-3.7177735s-.3383789-2.8212891-1.0151367-3.7001953c-.6767579-.8789062-1.6215821-1.3183594-2.8344727-1.3183594-1.2890625 0-2.2558594.4921875-2.9003906 1.4765625h-.1054688c-.1464843-.6855469-.243164-1.1191406-.290039-1.3007812h-1.6699219v14.0449219zm2.399414-5.8359376c-.8496093 0-1.461914-.2651367-1.836914-.7954101s-.5625-1.387207-.5625-2.5708008v-.3076172c0-1.0546875.1889648-1.8222656.5668945-2.3027343.3779297-.4804688.9770508-.7207032 1.7973633-.7207032.7441406 0 1.3081055.2797852 1.6918945.8393555.3837891.5595703.5756836 1.3842773.5756836 2.4741211 0 1.0839844-.1933594 1.9189453-.5800781 2.5048828-.3867188.5859375-.9375.8789062-1.6523438.8789062zm8.8154297 1.5117188v-13.6757812h-2.0654297v13.6757812zm7.1982424.1757812c.662109 0 1.250976-.0498046 1.766601-.149414s1.025391-.2695313 1.529297-.5097656v-1.678711c-.568359.2519532-1.100097.4321289-1.595215.5405274-.495117.1083984-1.029785.1625976-1.604003.1625976-.873047 0-1.549805-.2534179-2.030274-.7602539-.4804687-.5068359-.7353515-1.2319336-.7646484-2.1752929h6.4775394v-1.116211c0-1.3652344-.372071-2.4375-1.116211-3.2167969-.744141-.7792968-1.757813-1.1689453-3.041016-1.1689453-1.382812 0-2.4697264.4541016-3.2607421 1.3623047-.7910156.9082031-1.1865234 2.15625-1.1865234 3.7441406 0 1.546875.4262695 2.7612305 1.2788086 3.6430664.8525391.881836 2.0346679 1.3227539 3.5463869 1.3227539zm1.749023-6.0644531h-4.4121091c.0761719-.796875.3120121-1.4033203.7075191-1.8193359.395508-.4160156.921387-.6240234 1.577637-.6240234s1.171875.2065429 1.546875.6196289c.375.4130859.568359 1.0209961.580078 1.8237304zm16.813477 5.8886719v-1.8017578h-5.44043v-11.0478516h-2.100586v12.8496094zm6.240234.1757812c.66211 0 1.250977-.0498046 1.766602-.149414s1.02539-.2695313 1.529297-.5097656v-1.678711c-.56836.2519532-1.100098.4321289-1.595215.5405274-.495117.1083984-1.029785.1625976-1.604004.1625976-.873047 0-1.549805-.2534179-2.030274-.7602539-.480468-.5068359-.735351-1.2319336-.764648-2.1752929h6.477539v-1.116211c0-1.3652344-.37207-2.4375-1.116211-3.2167969-.74414-.7792968-1.757812-1.1689453-3.041016-1.1689453-1.382812 0-2.469726.4541016-3.260742 1.3623047-.791015.9082031-1.186523 2.15625-1.186523 3.7441406 0 1.546875.426269 2.7612305 1.278808 3.6430664.85254.881836 2.034668 1.3227539 3.546387 1.3227539zm1.749024-6.0644531h-4.41211c.076172-.796875.312012-1.4033203.70752-1.8193359s.921386-.6240234 1.577636-.6240234 1.171876.2065429 1.546876.6196289c.375.4130859.568359 1.0209961.580078 1.8237304zm6.732422 6.0644531c.74414 0 1.353515-.1069335 1.828124-.3208007.47461-.2138672.94629-.6166993 1.41504-1.2084961h.070312l.413086 1.3535156h1.476562v-6.5478516c0-1.1542968-.314941-2.0009765-.944824-2.540039s-1.562988-.8085938-2.799316-.8085938c-.556641 0-1.148438.0717774-1.775391.2153321-.626953.1435546-1.204101.3530273-1.731445.6284179l.667969 1.4765625c.421875-.1992187.861328-.3720703 1.318359-.5185547.457031-.1464843.93457-.2197265 1.432617-.2197265.609375 0 1.059082.1538086 1.349121.4614258.290039.3076171.435059.7719726.435059 1.3930664v.5185547l-1.678711.0527343c-1.523438.046875-2.657227.3251953-3.401367.834961-.744141.5097656-1.116211 1.265625-1.116211 2.2675781 0 .9433594.268066 1.6728516.804199 2.1884766s1.281738.7734374 2.236817.7734374zm.65039-1.5820312c-.515625 0-.902344-.1186523-1.160156-.355957-.257813-.2373047-.386719-.5727539-.386719-1.0063477 0-.5976562.221192-1.0415039.663574-1.331543.442383-.290039 1.149903-.4526367 2.122559-.4877929l1.248047-.0527344v.84375c0 .7558594-.227051 1.3432617-.681153 1.762207-.454101.4189453-1.056152.628418-1.806152.628418zm10.713867 1.5820312c1.277344 0 2.247071-.4833984 2.90918-1.4501953h.09668l.360351 1.2744141h1.617188v-13.6757812h-2.074219v3.5419921c0 .4042969.049805.9550782.149414 1.6523438h-.105469c-.667968-.9433594-1.640625-1.4150391-2.917968-1.4150391-1.21875 0-2.172364.4438477-2.86084 1.331543-.688477.8876953-1.032715 2.128418-1.032715 3.722168 0 1.5878906.339844 2.821289 1.019531 3.7001953.679688.8789062 1.625977 1.3183593 2.838867 1.3183593zm.553711-1.6699218c-.761718 0-1.333008-.2827149-1.713867-.8481446-.380859-.5654296-.571289-1.387207-.571289-2.465332 0-1.0898437.196289-1.9291992.588867-2.5180664s.952149-.8833008 1.678711-.8833008c.84961 0 1.473633.2578125 1.87207.7734375.398438.515625.597657 1.3857422.597657 2.6103516v.2900391c-.011719 1.0722656-.210938 1.8471679-.597657 2.324707-.386718.477539-1.004882.7163086-1.854492.7163086zm11.62793 1.6699218c.662109 0 1.250976-.0498046 1.766602-.149414.515624-.0996094 1.02539-.2695313 1.529296-.5097656v-1.678711c-.568359.2519532-1.100097.4321289-1.595214.5405274-.495118.1083984-1.029786.1625976-1.604004.1625976-.873047 0-1.549805-.2534179-2.030274-.7602539-.480469-.5068359-.735351-1.2319336-.764648-2.1752929h6.477539v-1.116211c0-1.3652344-.372071-2.4375-1.116211-3.2167969-.744141-.7792968-1.757813-1.1689453-3.041016-1.1689453-1.382812 0-2.469726.4541016-3.260742 1.3623047s-1.186523 2.15625-1.186523 3.7441406c0 1.546875.426269 2.7612305 1.278808 3.6430664.852539.881836 2.034668 1.3227539 3.546387 1.3227539zm1.749023-6.0644531h-4.412109c.076172-.796875.312012-1.4033203.70752-1.8193359.395507-.4160156.921386-.6240234 1.577636-.6240234s1.171875.2065429 1.546875.6196289c.375.4130859.56836 1.0209961.580078 1.8237304zm6.442383 5.8886719v-5.0800781c0-.8613281.256348-1.5615235.769043-2.100586s1.182129-.8085937 2.008301-.8085937c.316406 0 .621094.0351562.914062.1054687l.202149-1.9248047c-.269531-.0585937-.612305-.0878906-1.02832-.0878906-.597657 0-1.155762.1699219-1.674317.5097656-.518555.3398438-.938965.7998047-1.26123 1.3798829h-.105469l-.272461-1.7138672h-1.617188v9.7207031zm8.217774.1757812c1.289062 0 2.279296-.2534179 2.970703-.7602539.691406-.5068359 1.037109-1.2348632 1.037109-2.184082 0-.46875-.08789-.871582-.263672-1.2084961-.175781-.336914-.445312-.6342773-.808594-.8920898-.363281-.2578125-.946289-.5419922-1.749023-.8525391-.955078-.3691406-1.574707-.6591797-1.858887-.8701172-.284179-.2109375-.426269-.46875-.426269-.7734375 0-.6210937.544922-.9316406 1.634765-.9316406.714844 0 1.59668.2167969 2.645508.6503906l.667969-1.555664c-1.019531-.4628907-2.100586-.694336-3.243164-.694336-1.154297 0-2.066895.2299805-2.737793.6899414-.670898.459961-1.006348 1.1059571-1.006348 1.9379883 0 .6914063.197754 1.2539063.593262 1.6875.395508.4335938 1.152832.8671875 2.271973 1.3007813.574218.2226562 1.022461.421875 1.344726.5976562.322266.1757813.553711.3457031.694336.5097656s.210938.3691407.210938.6152344c0 .7675781-.635743 1.1513672-1.907227 1.1513672-.984375 0-2.047851-.2636719-3.19043-.7910156v1.7841797c.785157.3925781 1.825196.5888671 3.120118.5888671zm8.305664-.1757812v-4.8251953c0-1.21875.203613-2.0874024.61084-2.605957.407226-.5185547 1.044433-.7778321 1.911621-.7778321.65625 0 1.135254.1845703 1.437011.553711.301758.3691406.452637.9287109.452637 1.6787109v5.9765625h2.074219v-6.3369141c0-2.3730468-1.177735-3.5595703-3.533203-3.5595703-.667969 0-1.252442.1289063-1.753418.3867188-.500977.2578125-.89209.6210937-1.17334 1.0898437h-.131836c.070312-.6328125.105469-1.227539.105469-1.7841797v-3.4716796h-2.06543v13.6757812zm10.40625-11.1621094c.363281 0 .645996-.1010742.848144-.3032226.202149-.2021485.303223-.4790039.303223-.8305664 0-.3691407-.101074-.6533204-.303223-.8525391-.202148-.1992187-.484863-.2988281-.848144-.2988281-.375 0-.663575.0996094-.865723.2988281s-.303223.4833984-.303223.8525391c0 .3515625.101075.6284179.303223.8305664.202148.2021484.490723.3032226.865723.3032226zm1.019531 11.1621094v-9.7207031h-2.06543v9.7207031zm5.018555 4.3242188v-3.9814454c0-.1757812-.041016-.6738281-.123047-1.4941406h.123047c.679687.8847656 1.634765 1.3271484 2.865234 1.3271484 1.212891 0 2.163574-.4453124 2.852051-1.3359374.688476-.890625 1.032715-2.1298829 1.032715-3.7177735s-.338379-2.8212891-1.015137-3.7001953-1.621582-1.3183594-2.834473-1.3183594c-1.289062 0-2.255859.4921875-2.90039 1.4765625h-.105469c-.146485-.6855469-.243164-1.1191406-.290039-1.3007812h-1.669922v14.0449219zm2.399414-5.8359376c-.84961 0-1.461914-.2651367-1.836914-.7954101s-.5625-1.387207-.5625-2.5708008v-.3076172c0-1.0546875.188964-1.8222656.566894-2.3027343.37793-.4804688.977051-.7207032 1.797363-.7207032.744141 0 1.308106.2797852 1.691895.8393555s.575684 1.3842773.575684 2.4741211c0 1.0839844-.19336 1.9189453-.580079 2.5048828-.386718.5859375-.9375.8789062-1.652343.8789062z"/><path d="m30.6 10.7142857c2.48625 0 4.5-1.99776784 4.5-4.4642857s-2.01375-4.46428571-4.5-4.46428571-4.5 1.99776785-4.5 4.46428571 2.01375 4.4642857 4.5 4.4642857zm0-7.14285713c1.490625 0 2.7 1.19977679 2.7 2.67857143s-1.209375 2.67857143-2.7 2.67857143-2.7-1.19977679-2.7-2.67857143 1.209375-2.67857143 2.7-2.67857143zm-12.6 8.92857143c3.481875 0 6.3-2.79575893 6.3-6.25s-2.818125-6.25-6.3-6.25-6.3 2.79575893-6.3 6.25 2.818125 6.25 6.3 6.25zm0-10.71428571c2.480625 0 4.5 2.00334821 4.5 4.46428571s-2.019375 4.4642857-4.5 4.4642857-4.5-2.0033482-4.5-4.4642857 2.019375-4.46428571 4.5-4.46428571zm13.725 10.71428571h-2.25c-.855 0-1.648125.2678571-2.311875.7198661.52875.3571428 1.006875.7756696 1.42875 1.25.275625-.1171875.57375-.1841518.883125-.1841518h2.25c1.36125 0 2.475 1.1997768 2.475 2.6785714 0 .4910714.405.8928572.9.8928572s.9-.4017858.9-.8928572c0-2.4609375-1.918125-4.4642857-4.275-4.4642857zm-26.325-1.7857143c2.48625 0 4.5-1.99776784 4.5-4.4642857s-2.01375-4.46428571-4.5-4.46428571-4.5 1.99776785-4.5 4.46428571 2.01375 4.4642857 4.5 4.4642857zm0-7.14285713c1.490625 0 2.7 1.19977679 2.7 2.67857143s-1.209375 2.67857143-2.7 2.67857143-2.7-1.19977679-2.7-2.67857143 1.209375-2.67857143 2.7-2.67857143zm17.105625 10.04464283c-1.87875 0-2.345625.6696429-4.505625.6696429s-2.626875-.6696429-4.505625-.6696429c-2.041875 0-4.0275.9040179-5.191875 2.6171875-.6975 1.0267857-1.1025 2.2600447-1.1025 3.5881697v2.5c0 1.4787946 1.209375 2.6785714 2.7 2.6785714h16.2c1.490625 0 2.7-1.1997768 2.7-2.6785714v-2.5c0-1.328125-.405-2.561384-1.1025-3.5881697-1.164375-1.7131696-3.15-2.6171875-5.191875-2.6171875zm4.494375 8.7053572c0 .4910714-.405.8928571-.9.8928571h-16.2c-.495 0-.9-.4017857-.9-.8928571v-2.5c0-.9263393.275625-1.8247768.793125-2.5892857.77625-1.1439733 2.16-1.8303572 3.695625-1.8303572 1.54125 0 2.0925.6696429 4.51125.6696429s2.97-.6696429 4.505625-.6696429 2.919375.6863839 3.695625 1.8303572c.5175.7645089.793125 1.6629464.793125 2.5892857v2.5zm-18.163125-9.1015625c-.669375-.452009-1.4625-.7198661-2.311875-.7198661h-2.25c-2.356875 0-4.275 2.0033482-4.275 4.4642857 0 .4910714.405.8928572.9.8928572s.9-.4017858.9-.8928572c0-1.4787946 1.11375-2.6785714 2.475-2.6785714h2.25c.309375 0 .6075.0669643.883125.1841518.421875-.4743304.905625-.8928572 1.42875-1.25z" transform="translate(4 8)"/></g></svg>