<svg height="40" viewBox="0 0 240 40" width="240" xmlns="http://www.w3.org/2000/svg"><g fill="#000" fill-rule="nonzero"><path d="m51.796875 27v-4.8076172h1.3359375c1.6230469 0 2.8740234-.3574219 3.7529297-1.0722656.8789062-.7148438 1.3183594-1.7431641 1.3183594-3.084961 0-1.2773437-.3999024-2.2441406-1.1997071-2.9003906s-2.0024414-.984375-3.6079101-.984375h-3.7001953v12.8496094zm1.1162109-6.5742188h-1.1162109v-4.5175781h1.4589844c.9550781 0 1.6582031.1816407 2.109375.5449219.4511718.3632812.6767578.9140625.6767578 1.6523438 0 .796875-.2519531 1.3828124-.7558594 1.7578124-.5039062.375-1.2949219.5625-2.3730469.5625zm9.703125 6.5742188v-5.0800781c0-.8613281.2563477-1.5615235.769043-2.100586s1.1821289-.8085937 2.0083008-.8085937c.3164062 0 .6210937.0351562.9140625.1054687l.2021484-1.9248047c-.2695312-.0585937-.6123047-.0878906-1.0283203-.0878906-.5976562 0-1.1557617.1699219-1.6743164.5097656-.5185547.3398438-.9389648.7998047-1.2612305 1.3798829h-.1054687l-.2724609-1.7138672h-1.6171876v9.7207031zm9.3339844.1757812c1.453125 0 2.5869141-.4453124 3.4013672-1.3359374s1.2216797-2.1298829 1.2216797-3.7177735c0-1.5351562-.4101563-2.7553711-1.2304688-3.6606445-.8203125-.9052735-1.9335937-1.3579102-3.3398437-1.3579102-1.4707031 0-2.6103516.4423828-3.4189453 1.3271485-.8085938.8847656-1.2128906 2.1152343-1.2128906 3.6914062 0 1.0136719.1875 1.9042969.5625 2.671875s.9111328 1.3564453 1.6083984 1.7666016c.6972656.4101562 1.5.6152343 2.4082031.6152343zm.0351563-1.6875c-1.6582032 0-2.4873047-1.1220703-2.4873047-3.3662109 0-1.0722656.1948242-1.8955078.5844726-2.4697265.3896485-.5742188 1.0180664-.8613282 1.8852539-.8613282 1.6523438 0 2.4785157 1.1103516 2.4785157 3.3310547 0 2.2441406-.8203125 3.3662109-2.4609375 3.3662109zm10.2392578 1.6875c1.2773437 0 2.2470703-.4833984 2.9091797-1.4501953h.0966797l.3603515 1.2744141h1.6171875v-13.6757812h-2.0742187v3.5419921c0 .4042969.0498047.9550782.149414 1.6523438h-.1054687c-.6679688-.9433594-1.640625-1.4150391-2.9179688-1.4150391-1.21875 0-2.1723633.4438477-2.8608398 1.331543-.6884766.8876953-1.0327149 2.128418-1.0327149 3.722168 0 1.5878906.3398438 2.821289 1.0195313 3.7001953.6796875.8789062 1.6259766 1.3183593 2.8388672 1.3183593zm.5537109-1.6699218c-.7617187 0-1.3330078-.2827149-1.7138672-.8481446-.3808593-.5654296-.571289-1.387207-.571289-2.465332 0-1.0898437.196289-1.9291992.5888671-2.5180664.3925782-.5888672.9521485-.8833008 1.678711-.8833008.8496094 0 1.4736328.2578125 1.8720703.7734375s.5976563 1.3857422.5976563 2.6103516v.2900391c-.0117188 1.0722656-.2109376 1.8471679-.5976563 2.324707-.3867187.477539-1.0048828.7163086-1.8544922.7163086zm10.8017578 1.6699218c.6796875 0 1.284668-.1289062 1.8149414-.3867187.5302735-.2578125.9389649-.6123047 1.2260743-1.0634766h.1054687l.2900391 1.2744141h1.6259765v-9.7207031h-2.0742187v4.8427734c0 1.21875-.2036133 2.0874024-.6108399 2.605957-.4072265.5185547-1.0444336.7778321-1.9116211.7778321-.6503906 0-1.1279296-.1860352-1.4326172-.5581055-.3046874-.3720703-.4570312-.9301758-.4570312-1.6743164v-5.9941406h-2.0830078v6.3544922c0 1.1894531.290039 2.0771484.8701172 2.6630859.5800781.5859375 1.4589844.8789062 2.6367187.8789062zm11.9267579 0c.597656 0 1.105957-.046875 1.524902-.140625.418946-.09375.812989-.2490234 1.182129-.4658203v-1.8017578c-.820312.4570313-1.690429.6855469-2.610351.6855469-.808594 0-1.422364-.2739258-1.841309-.8217773-.418945-.5478516-.628418-1.3666993-.628418-2.456543 0-2.2324219.84082-3.3486328 2.522461-3.3486328.568359 0 1.289062.1699219 2.162109.5097656l.624024-1.6611328c-.820313-.3808594-1.743164-.5712891-2.768555-.5712891-1.511719 0-2.66748.4394532-3.467285 1.3183594s-1.199707 2.1357422-1.199707 3.7705078c0 1.6054688.382324 2.8374024 1.146973 3.6958008.764648.8583984 1.882324 1.2875976 3.353027 1.2875976zm8.121094 0c.386718 0 .760254-.0336914 1.120605-.1010742.360352-.0673828.654785-.1508789.883301-.2504882v-1.5556641c-.503906.1582031-1.007813.2373047-1.511719.2373047-.404297 0-.730957-.1186524-.97998-.3559571-.249024-.2373046-.373535-.6049804-.373535-1.1030273v-5.203125h2.768554v-1.5644531h-2.768554v-2.1621094h-1.274414l-.703126 2.0566406-1.423828.7558594v.9140625h1.327149v5.2382812c0 2.0625.978515 3.09375 2.935547 3.09375zm10.749023-.1757812v-6.2490234c0-1.3945313-.049805-2.8886719-.149414-4.4824219h.070313l3.726562 10.7314453h1.854492l3.858399-10.7138672h.070312c-.023437.2167969-.051269.8378906-.083496 1.8632813-.032226 1.0253906-.04834 1.8574218-.04834 2.4960937v6.3544922h2.021485v-12.8496094h-2.970704l-3.673828 10.2216797h-.052734l-3.568359-10.2216797h-2.961914v12.8496094zm16.839844.1757812c.744141 0 1.353515-.1069335 1.828125-.3208007.474609-.2138672.946289-.6166993 1.415039-1.2084961h.070312l.413086 1.3535156h1.476563v-6.5478516c0-1.1542968-.314942-2.0009765-.944824-2.540039-.629883-.5390625-1.562989-.8085938-2.799317-.8085938-.55664 0-1.148437.0717774-1.77539.2153321-.626953.1435546-1.204102.3530273-1.731446.6284179l.667969 1.4765625c.421875-.1992187.861328-.3720703 1.318359-.5185547.457032-.1464843.934571-.2197265 1.432618-.2197265.609375 0 1.059082.1538086 1.349121.4614258.290039.3076171.435058.7719726.435058 1.3930664v.5185547l-1.678711.0527343c-1.523437.046875-2.657226.3251953-3.401367.834961-.74414.5097656-1.116211 1.265625-1.116211 2.2675781 0 .9433594.268067 1.6728516.804199 2.1884766.536133.515625 1.281739.7734374 2.236817.7734374zm.650391-1.5820312c-.515626 0-.902344-.1186523-1.160157-.355957-.257812-.2373047-.386719-.5727539-.386719-1.0063477 0-.5976562.221192-1.0415039.663575-1.331543.442383-.290039 1.149902-.4526367 2.122558-.4877929l1.248047-.0527344v.84375c0 .7558594-.227051 1.3432617-.681152 1.762207-.454102.4189453-1.056152.628418-1.806152.628418zm9.500976 1.40625v-4.8427734c0-1.2128907.202148-2.0771485.606445-2.5927735s1.042969-.7734375 1.916016-.7734375c.65625 0 1.135254.1845703 1.437012.553711.301758.3691406.452636.9287109.452636 1.6787109v5.9765625h2.074219v-6.3369141c0-2.3730468-1.166015-3.5595703-3.498047-3.5595703-.65625 0-1.253906.1259766-1.792968.3779297-.539063.2519531-.955079.609375-1.248047 1.0722656h-.105469l-.290039-1.274414h-1.617188v9.7207031zm11.71582.1757812c.744141 0 1.353516-.1069335 1.828125-.3208007.47461-.2138672.946289-.6166993 1.415039-1.2084961h.070313l.413086 1.3535156h1.476562v-6.5478516c0-1.1542968-.314941-2.0009765-.944824-2.540039s-1.562988-.8085938-2.799316-.8085938c-.556641 0-1.148438.0717774-1.775391.2153321-.626953.1435546-1.204101.3530273-1.731445.6284179l.667969 1.4765625c.421875-.1992187.861328-.3720703 1.318359-.5185547.457031-.1464843.93457-.2197265 1.432617-.2197265.609375 0 1.059082.1538086 1.349121.4614258.290039.3076171.435059.7719726.435059 1.3930664v.5185547l-1.678711.0527343c-1.523438.046875-2.657227.3251953-3.401367.834961-.744141.5097656-1.116211 1.265625-1.116211 2.2675781 0 .9433594.268066 1.6728516.804199 2.1884766s1.281738.7734374 2.236816.7734374zm.650391-1.5820312c-.515625 0-.902344-.1186523-1.160156-.355957-.257813-.2373047-.386719-.5727539-.386719-1.0063477 0-.5976562.221191-1.0415039.663574-1.331543.442383-.290039 1.149903-.4526367 2.122559-.4877929l1.248047-.0527344v.84375c0 .7558594-.227051 1.3432617-.681153 1.762207-.454101.4189453-1.056152.628418-1.806152.628418zm10.239258 5.7304688c1.716797 0 3.029297-.2988282 3.9375-.8964844.908203-.5976563 1.362305-1.4472656 1.362305-2.5488282 0-.8613281-.278321-1.5205078-.834961-1.977539-.556641-.4570313-1.371094-.6855469-2.44336-.6855469h-1.696289c-.55664 0-.938965-.0556641-1.146973-.1669922-.208007-.1113281-.312011-.2783203-.312011-.5009765 0-.3691407.222656-.6914063.667968-.9667969.251954.046875.533204.0703125.84375.0703125 1.212891 0 2.16504-.2871094 2.856446-.8613281.691406-.5742188 1.037109-1.3623047 1.037109-2.3642579 0-.3339843-.049805-.6503906-.149414-.9492187s-.225586-.5507813-.37793-.7558594l1.661133-.3076172v-1.133789h-3.366211c-.152343-.0410157-.379394-.0805664-.681152-.1186524-.301758-.0380859-.590332-.0571289-.865723-.0571289-1.230468 0-2.178222.2900391-2.843261.8701172s-.997559 1.397461-.997559 2.4521484c0 .65625.156738 1.229004.470215 1.7182618.313476.4892578.722168.8422851 1.226074 1.059082-.404297.2460938-.708984.4951172-.914062.7470703-.205079.2519531-.307618.5595703-.307618.9228516 0 .2871093.089356.5610351.268067.8217773s.405762.449707.681152.5668946c-.679687.1582031-1.208496.4409179-1.586426.8481445-.377929.4072265-.566894.9096679-.566894 1.5073242 0 .8671875.348633 1.5351563 1.045898 2.0039063.697266.46875 1.708008.703125 3.032227.703125zm.474609-9c-.585937 0-1.035644-.1640626-1.349121-.4921876-.313476-.328125-.470215-.796875-.470215-1.40625 0-.6503906.153809-1.1455078.461426-1.4853515.307617-.3398438.760254-.5097656 1.35791-.5097656.603516 0 1.053223.1713867 1.349121.5141601.295899.3427735.443848.8305664.443848 1.4633789 0 1.2773438-.597656 1.9160157-1.792969 1.9160157zm-.413086 7.5761718c-.726562 0-1.290527-.1201172-1.691894-.3603515-.401367-.2402344-.602051-.5830079-.602051-1.0283203 0-.4746094.174316-.8510743.522949-1.1293946s.818848-.4174804 1.410645-.4174804h1.564453c.820312 0 1.381347.0893554 1.683105.2680664.301758.1787109.452637.4790039.452637.9008789 0 .5332031-.275391.9609375-.826172 1.2832031s-1.388672.4833984-2.513672.4833984zm11.390625-2.7246094c.66211 0 1.250977-.0498046 1.766602-.149414s1.02539-.2695313 1.529297-.5097656v-1.678711c-.56836.2519532-1.100098.4321289-1.595215.5405274-.495117.1083984-1.029785.1625976-1.604004.1625976-.873047 0-1.549805-.2534179-2.030273-.7602539-.480469-.5068359-.735352-1.2319336-.764649-2.1752929h6.477539v-1.116211c0-1.3652344-.37207-2.4375-1.116211-3.2167969-.74414-.7792968-1.757812-1.1689453-3.041015-1.1689453-1.382813 0-2.469727.4541016-3.260743 1.3623047-.791015.9082031-1.186523 2.15625-1.186523 3.7441406 0 1.546875.426269 2.7612305 1.278809 3.6430664.852539.881836 2.034667 1.3227539 3.546386 1.3227539zm1.749024-6.0644531h-4.41211c.076172-.796875.312012-1.4033203.70752-1.8193359s.921387-.6240234 1.577637-.6240234 1.171875.2065429 1.546875.6196289c.375.4130859.568359 1.0209961.580078 1.8237304zm6.442383 5.8886719v-4.8427734c0-1.2070313.186035-2.0698243.558105-2.5883789.37207-.5185547.956543-.7778321 1.753418-.7778321.597656 0 1.037109.1831055 1.318359.5493164.28125.366211.421875.9213868.421875 1.6655274v5.9941406h2.074219v-5.1503906c0-1.0371094.186035-1.8061524.558106-2.3071289.37207-.5009766.959472-.7514649 1.762207-.7514649.597656 0 1.038574.1831055 1.322753.5493164.28418.366211.42627.9213868.42627 1.6655274v5.9941406h2.06543v-6.3369141c0-1.2011718-.265137-2.0947265-.79541-2.680664-.530274-.5859375-1.375489-.8789063-2.535645-.8789063-.673828 0-1.271484.1347656-1.792969.4042969-.521484.2695313-.925781.6445313-1.21289 1.125h-.140625c-.486329-1.0195313-1.476563-1.5292969-2.970703-1.5292969-.615235 0-1.1792.1259766-1.691895.3779297s-.903809.609375-1.17334 1.0722656h-.105469l-.290039-1.274414h-1.617187v9.7207031zm19.388671.1757812c.66211 0 1.250977-.0498046 1.766602-.149414s1.025391-.2695313 1.529297-.5097656v-1.678711c-.56836.2519532-1.100098.4321289-1.595215.5405274-.495117.1083984-1.029785.1625976-1.604004.1625976-.873047 0-1.549805-.2534179-2.030273-.7602539-.480469-.5068359-.735352-1.2319336-.764649-2.1752929h6.477539v-1.116211c0-1.3652344-.37207-2.4375-1.116211-3.2167969-.74414-.7792968-1.757812-1.1689453-3.041015-1.1689453-1.382813 0-2.469727.4541016-3.260742 1.3623047-.791016.9082031-1.186524 2.15625-1.186524 3.7441406 0 1.546875.42627 2.7612305 1.278809 3.6430664.852539.881836 2.034668 1.3227539 3.546386 1.3227539zm1.749024-6.0644531h-4.41211c.076172-.796875.312012-1.4033203.70752-1.8193359s.921387-.6240234 1.577637-.6240234 1.171875.2065429 1.546875.6196289c.375.4130859.568359 1.0209961.580078 1.8237304zm6.442383 5.8886719v-4.8427734c0-1.2128907.202148-2.0771485.606445-2.5927735s1.042969-.7734375 1.916016-.7734375c.65625 0 1.135253.1845703 1.437011.553711.301758.3691406.452637.9287109.452637 1.6787109v5.9765625h2.074219v-6.3369141c0-2.3730468-1.166016-3.5595703-3.498047-3.5595703-.65625 0-1.253906.1259766-1.792969.3779297-.539062.2519531-.955078.609375-1.248047 1.0722656h-.105469l-.290039-1.274414h-1.617187v9.7207031zm12.489257.1757812c.386719 0 .760254-.0336914 1.120606-.1010742.360351-.0673828.654785-.1508789.883301-.2504882v-1.5556641c-.503907.1582031-1.007813.2373047-1.511719.2373047-.404297 0-.730957-.1186524-.979981-.3559571-.249023-.2373046-.373535-.6049804-.373535-1.1030273v-5.203125h2.768555v-1.5644531h-2.768555v-2.1621094h-1.274414l-.703125 2.0566406-1.423828.7558594v.9140625h1.327149v5.2382812c0 2.0625.978515 3.09375 2.935546 3.09375z"/><path d="m34.2 0h-23.4c-.9939375 0-1.8.81166016-1.8 1.8125v5.4375c-2.982375 0-5.4 2.43441406-5.4 5.4375 0 3.0030859 2.417625 5.4375 5.4 5.4375s5.4-2.4344141 5.4-5.4375c0-2.3641797-1.5075-4.35566406-3.6-5.10445313v-5.77054687h23.4v19.9375h-17.024625c-.0331875-.0532422-.0579375-.1110156-.0928125-.163125-.9703125-1.4511328-2.6251875-2.2152148-4.325625-2.2152148-1.5631875.0005664-1.9558125.5658398-3.7569375.5658398-1.7983125 0-2.1909375-.5652734-3.7569375-.5652734-1.7004375 0-3.3553125.7635156-4.325625 2.2152148-.579375.8660352-.9174375 1.9093555-.9174375 3.0325391v2.1143945c0 1.2511914 1.0074375 2.265625 2.25 2.265625h13.5c1.2425625 0 2.25-1.0144336 2.25-2.265625v-2.1143945c0-.3630664-.04725-.7136719-.11475-1.0574805h16.31475c.9939375 0 1.8-.8116602 1.8-1.8125v-19.9375c0-1.00083984-.8060625-1.8125-1.8-1.8125zm-21.6 12.6875c0 1.9988477-1.6149375 3.625-3.6 3.625s-3.6-1.6261523-3.6-3.625 1.6149375-3.625 3.6-3.625 3.6 1.6261523 3.6 3.625zm3.6 14.046875c0 .2497852-.2019375.453125-.45.453125h-13.5c-.2480625 0-.45-.2033398-.45-.453125v-2.1143945c0-.7244336.2109375-1.4233789.6103125-2.0203711.5923125-.8858594 1.6509375-1.4148828 2.83275-1.4148828 1.22625 0 1.6869375.5652734 3.7569375.5652734 2.0694375 0 2.5318125-.5652734 3.7569375-.5652734 1.18125 0 2.2404375.5290234 2.83275 1.4148828.399375.5969922.6103125 1.2959375.6103125 2.0203711zm2.847375-18.08591797c-.527625-.53128906-1.3815-.53128906-1.909125 0l-1.4338125 1.44376957c.2565.6638281.410625 1.3690039.4618125 2.0979687l1.9265625-1.9399414 3.546 3.5700586c.2638125.2656445.6080625.3976172.9545625.3976172s.69075-.1319727.9545625-.3976172l3.3170625-3.3400977 1.86975 1.8827344c.22275.2242969.496125.3245508.765.3245508.5619375 0 1.1008125-.4395312 1.1008125-1.102793v-5.41371091c0-.40498046-.32625-.73349609-.7284375-.73349609h-5.376375c-.9736875 0-1.461375 1.18548828-.772875 1.87876953l1.86975 1.88273438-2.9986875 3.01951169zm9.752625-1.39845703v2.61566406l-2.597625-2.61566406z" transform="translate(4 6)"/></g></svg>