<svg height="40" viewBox="0 0 132 40" width="132" xmlns="http://www.w3.org/2000/svg"><g transform="translate(0 2)"><path d="m33.7078125 11.6662293c-.4352515-.1446351-.870503-.2812349-1.3057546-.4097995.0725419-.2973056.1370237-.5946111.2015054-.8919167.9914062-4.78902997.3385289-8.6379316-1.8619093-9.90750666-2.1198362-1.21332808-5.5776677.04821171-9.0758003 3.08554953-.3465892.29730555-.6851182.61068167-1.0075267.9240578-.2176258-.20891742-.4433118-.41783483-.6689977-.61871696-3.6673971-3.24625524-7.3428545-4.61225373-9.5432927-3.33464338-2.11177593 1.22136336-2.74047258 4.845277-1.8538491 9.37717787.08866235.449976.18538491.8919167.2982279 1.3418926-.51585366.1446352-1.02364711.3053409-1.4991997.4740819-4.30415396 1.4865277-7.3912157 3.832831-7.3912157 6.2594872 0 2.507009 3.28856707 5.0220532 7.76198552 6.5487574.3627096.1205293.72541921.2410586 1.09618902.3455173-.1209032.4821171-.22568597.9561989-.32240853 1.4463513-.84632241 4.4595833-.18538491 7.9951088 1.92639099 9.2084369 2.1762576 1.2535045 5.8355945-.0321411 9.3982089-3.1417965.2821074-.2490939.5642149-.506223.8463224-.7794227.3546494.3455173.7254192.674964 1.096189.9963754 3.4497713 2.956985 6.8592416 4.1542425 8.9629573 2.9409144 2.1762576-1.2535045 2.8855564-5.0541944 1.9666921-9.6825187-.0725419-.3535526-.1531441-.7151404-.2418064-1.0847635.2579268-.0723176.5077934-.1526704.75766-.2330233 4.6507432-1.5347395 8.0199124-4.0176426 8.0199124-6.564828 0-2.4346915-3.1757241-4.7970653-7.5604802-6.2996637zm-10.9054688-6.82195713c2.9983994-2.60343241 5.7952935-3.62391364 7.0688072-2.89270268 1.3621761.77942267 1.88609 3.92925448 1.0317073 8.06742641-.0564215.2731997-.112843.5383641-.1853849.8035285-1.7893674-.4017643-3.6029154-.6910345-5.4245236-.85174025-1.0478277-1.49456305-2.1923781-2.92484382-3.4336509-4.26673646.3143483-.29730555.6206364-.57854053.9430449-.85977552zm-10.4782774 15.19472443c.3707698.7071051.7495999 1.4061749 1.1526105 2.0972094.4110709.6990698.830202 1.3981396 1.2735137 2.0811389-1.2573932-.1365999-2.5067263-.337482-3.739939-.6026464.3546494-1.1570811.7979612-2.3543386 1.3138148-3.5757019zm0-4.0658544c-.5077934-1.1972575-.9349847-2.3704091-1.2896341-3.5033843 1.1606707-.2571292 2.3938833-.4660466 3.6754573-.6267523-.4271913.6669287-.8463224 1.3499279-1.2412729 2.0409625-.3949504.6829992-.7818407 1.382069-1.1445503 2.0891741zm.9188643 2.0329272c.5319741-1.1088694 1.1123095-2.1936329 1.7248857-3.2623258.6125762-1.068693 1.2735137-2.1052447 1.9666921-3.125726 1.209032-.0883881 2.4422446-.1365998 3.6996379-.1365998s2.4986662.0482117 3.699638.1365998c.6851181 1.012446 1.3379954 2.0489978 1.9586319 3.1096554.6206364 1.0606577 1.2009718 2.1454212 1.7490663 3.2462552-.5400343 1.1088694-1.1203697 2.2016682-1.7410061 3.2783964-.6125762 1.068693-1.2654535 2.1052448-1.9505717 3.1337613-1.2009718.0883881-2.4503049.1285645-3.7157584.1285645s-2.4906059-.0401764-3.6754573-.112494c-.7012385-1.0204812-1.362176-2.0650683-1.9828125-3.1337612-.6206364-1.0686929-1.1929116-2.1534564-1.7329459-3.2623258zm14.5567455 4.114066c.4110709-.7071051.7979611-1.4222455 1.1767911-2.1454211.5158537 1.1651163.9672256 2.3463033 1.3621761 3.5596313-1.2493331.281235-2.5147866.4981877-3.7883003.6428229.4352515-.674964.8463224-1.3659985 1.2493331-2.0570331zm1.1606707-6.1469932c-.37883-.7071051-.7657203-1.4142102-1.1687309-2.1052447-.3949505-.6829993-.8060214-1.3579632-1.2332127-2.0248919 1.2976944.1607057 2.5389672.3776584 3.699638.6428228-.3707699 1.1892222-.8060214 2.3463033-1.2976944 3.4873138zm-8.31008-9.03969586c.8463224.91602251 1.6442835 1.88025674 2.3858231 2.87663211-1.5959222-.07231757-3.1999047-.07231757-4.7958269 0 .7899009-1.0365518 1.6039824-2.00078602 2.4100038-2.87663211zm-9.3498476-4.92562985c1.3541159-.78745796 4.3605755.33748198 7.5282393 3.13376124.2015054.17677627.4030107.36962312.6125763.56246996-1.2493331 1.34189264-2.4019436 2.77217341-3.4578316 4.26673646-1.8216082.16070575-3.627096.44194065-5.4164634.83566965-.1047828-.4097995-.1934451-.82763436-.2821075-1.24546919-.75766004-3.88907806-.2579268-6.82195717 1.0155869-7.55316812zm-1.97475228 21.18101191c-.33852896-.0964235-.66899771-.2008822-.99946646-.3133762-1.71682546-.5383641-3.66739711-1.3901043-5.07793445-2.507009-.81408156-.5624699-1.36217607-1.4302807-1.51532013-2.4025502 0-1.4704572 2.54702744-3.350714 6.22248476-4.6283243.45943216-.1607057.92692454-.3053409 1.39441692-.4419407.54809451 1.7436569 1.20903204 3.4551726 1.97475224 5.1104414-.7737804 1.6793746-1.44277815 3.4149962-1.99893288 5.182759zm9.39820888 7.8745795c-1.3299353 1.2133281-2.869436 2.1775623-4.5459604 2.8364557-.8946837.4258701-1.926391.4660465-2.8452553.1044587-1.281574-.7392462-1.81354806-3.5757019-1.0881289-7.3924624.0886624-.449976.185385-.899952.2982279-1.3418927 1.8054879.3856937 3.6270961.6508581 5.472885.787458 1.0639481 1.5025983 2.2326791 2.9409144 3.4820121 4.2908423-.2579268.2490939-.5158536.4901524-.7737804.7151404zm1.9747522-1.9525743c-.8221417-.8838814-1.6442835-1.8641862-2.4422446-2.9168086.7737805.0321412 1.5717416.0482118 2.3777629.0482118.830202 0 1.6442836-.0160706 2.4503049-.056247-.7415396 1.0204812-1.5395007 1.9927507-2.3858232 2.9248438zm10.534699 2.4105856c-.0725419.9803048-.5561547 1.8963273-1.3299352 2.5150442-1.281574.7392463-4.0139863-.224988-6.9640244-2.7480675-.338529-.2892703-.6770579-.6026464-1.0236471-.9240578 1.2332126-1.3579632 2.3697027-2.7962793 3.40141-4.3069129 1.8457889-.1526704 3.6835176-.4339054 5.4970656-.843705.0806021.3294467.153144.6588934.2176257.9803048.3949505 1.7356217.4594322 3.5435608.2015054 5.3273942zm1.4669588-8.6379317c-.225686.0723176-.4513719.1446352-.6851181.2089174-.564215-1.7516921-1.2573933-3.4632079-2.0553544-5.1265119.7737804-1.6391982 1.4266577-3.3266081 1.9747522-5.0541944.4191311.1205292.8221418.2490938 1.2090321.3776584 3.7560594 1.2856456 6.3917492 3.1980435 6.3917492 4.6604654 0 1.5749159-2.8130145 3.6078431-6.835061 4.9336651zm-12.0661395-8.565614c2.039234 0 3.6915778 1.6472334 3.6915778 3.6801606s-1.6523438 3.6801606-3.6915778 3.6801606-3.6915777-1.6472334-3.6915777-3.6801606 1.6523437-3.6801606 3.6915777-3.6801606" transform="translate(90)"/><path d="m5.87402344 29v-8.2177734h4.13085936l4.2773438 8.2177734h3.9697265v-.1904297l-4.790039-8.8916015c1.2304687-.5175782 2.1899414-1.2573243 2.8784179-2.2192383.6884766-.9619141 1.0327149-2.1557617 1.0327149-3.581543 0-2.0898437-.6689453-3.6865234-2.006836-4.79003906-1.3378906-1.10351563-3.2373047-1.65527344-5.69824215-1.65527344h-7.5v21.328125zm3.80859375-11.1914062h-3.80859375v-7.1484376h3.91113281c1.28906255.0195313 2.25830075.3417969 2.90771485.9667969s.9741211 1.5087891.9741211 2.6513672c0 1.09375-.3515625 1.9555664-1.0546875 2.5854492s-1.6796875.9448243-2.92968751.9448243zm18.84179691 11.484375c1.3183593 0 2.5073242-.2612305 3.5668945-.7836915 1.0595703-.5224609 1.9067383-1.2573242 2.5415039-2.2045898l-1.9189453-1.8310547c-1.0253906 1.3183594-2.3535156 1.9775391-3.984375 1.9775391-1.1621094 0-2.1264649-.3808594-2.8930664-1.1425781-.7666016-.7617188-1.2036133-1.796875-1.3110352-3.1054688h10.3564453v-1.4355469c0-2.5195312-.5883789-4.4677734-1.7651367-5.8447265-1.1767578-1.3769532-2.8442383-2.0654297-5.0024414-2.0654297-1.3574219 0-2.5878906.3466797-3.6914062 1.040039-1.1035157.6933594-1.9604493 1.6625977-2.5708008 2.9077149-.6103516 1.2451172-.9155274 2.6586914-.9155274 4.2407226v.4394532c0 2.3632812.7006836 4.2553711 2.1020508 5.6762695s3.2299805 2.1313477 5.4858399 2.1313477zm2.8417968-9.6972657h-6.7822265c.1660156-1.2207031.5493164-2.1728515 1.1499023-2.8564453.600586-.6835937 1.3891602-1.0253906 2.3657227-1.0253906.9863281 0 1.7578125.3051758 2.3144531.9155273.5566406.6103516.8740234 1.5112305.9521484 2.7026367zm12.1767579 9.6972657c1.640625 0 3.0273437-.5908204 4.1601562-1.772461.1171875.6835938.2539062 1.1767578.4101562 1.4794922h3.6328126v-.2490234c-.4003907-.8496094-.600586-1.9873047-.600586-3.413086v-7.1484375c-.0292969-1.6894531-.5957031-3.0004883-1.6992187-3.9331054-1.1035157-.9326172-2.5830079-1.3989258-4.4384766-1.3989258-1.2207031 0-2.3266602.2148437-3.3178711.6445312s-1.7749023 1.0229492-2.3510742 1.7797852c-.5761719.7568359-.8642578 1.5698242-.8642578 2.4389648h3.5595703c0-.625.2587891-1.1401367.7763672-1.5454101.5175781-.4052735 1.1816406-.6079102 1.9921875-.6079102.9375 0 1.6357422.246582 2.0947265.7397461.4589844.4931641.6884766 1.1499023.6884766 1.9702149v1.040039h-2.1826172c-2.3339844 0-4.128418.4516602-5.3833008 1.3549805s-1.8823242 2.199707-1.8823242 3.8891601c0 1.3378907.5029297 2.4609375 1.5087891 3.3691407 1.0058594.9082031 2.3046875 1.3623047 3.8964844 1.3623047zm.6591796-2.8564454c-.7617187 0-1.3696289-.2026367-1.8237304-.6079101-.4541016-.4052735-.6811524-.9497071-.6811524-1.6333008 0-.8398437.3320313-1.4892578.9960938-1.9482422s1.6552734-.6884765 2.9736328-.6884765h1.9189453v2.9882812c-.3125.5761719-.7788086 1.0351562-1.3989258 1.3769531s-1.2817383.5126953-1.9848633.5126953zm18.2265625 2.8564454c1.1425782 0 2.2070313-.2490235 3.1933594-.7470704.9863281-.4980468 1.7675781-1.1743164 2.34375-2.0288086.5761719-.8544921.8837891-1.7749023.9228516-2.7612304h-3.3544922c-.0390625.7617187-.3515625 1.4013672-.9375 1.9189453s-1.3232422.7763672-2.2119141.7763672c-1.171875 0-2.0678711-.4223633-2.6879883-1.2670899-.6201171-.8447265-.9301757-2.1264648-.9301757-3.8452148v-.5712891c.0097656-1.6992187.3271484-2.9663086.9521484-3.8012695s1.5136719-1.2524414 2.6660156-1.2524414c.8984375 0 1.6381836.2929687 2.2192383.8789062s.8911133 1.3330078.9301758 2.241211h3.3544922c-.0585938-1.7871094-.6811524-3.2299805-1.8676758-4.3286133s-2.722168-1.6479492-4.6069336-1.6479492c-2.2265625 0-3.984375.7250976-5.2734375 2.1752929-1.2890625 1.4501954-1.9335938 3.3813477-1.9335938 5.7934571v.3662109c0 2.5292969.6494141 4.5117188 1.9482422 5.9472656 1.2988282 1.4355469 3.0566407 2.1533204 5.2734375 2.1533204zm15.1503907 0c.7519531 0 1.5332031-.1123047 2.34375-.3369141v-2.7539063c-.4199219.0976563-.834961.1464844-1.2451172.1464844-.6152344 0-1.0424805-.1342773-1.2817383-.402832s-.3588867-.7055664-.3588867-1.3110352v-8.8476562h2.7978515v-2.6367188h-2.7978515v-3.85253904h-3.5595703v3.85253904h-2.6074219v2.6367188h2.6074219v8.9794922c0 3.0175781 1.3671875 4.5263672 4.1015625 4.5263672z"/></g></svg>