<svg height="40" viewBox="0 0 240 40" width="240" xmlns="http://www.w3.org/2000/svg"><g fill="#000" fill-rule="nonzero"><path d="m54.6269531 27.1757812c1.0722657 0 1.9936524-.1918945 2.7641602-.5756835.7705078-.3837891 1.359375-.9316407 1.7666015-1.6435547.4072266-.7119141.6108399-1.5424805.6108399-2.4916992v-8.3144532h-2.1005859v8.1123047c0 2.0800781-.9902344 3.1201172-2.9707032 3.1201172-1.0195312 0-1.7753906-.2519531-2.2675781-.7558594-.4921875-.5039062-.7382813-1.2861328-.7382813-2.3466797v-8.1298828h-2.109375v8.2792969c0 1.4765625.4423829 2.6367187 1.3271485 3.4804687s2.1240234 1.265625 3.7177734 1.265625zm9.0175781-.1757812 3.2431641-5.2558594 3.2167969 5.2558594h2.4169922l-4.3242188-6.6269531 4.0166016-6.2226563h-2.2675781l-2.9707032 4.8603516-2.9707031-4.8603516h-2.3378906l3.9902344 6.1875-4.2626954 6.6621094zm15.6796876 0 4.78125-12.8496094h-1.9423829l-4.790039 12.8496094zm16.2333984.1757812c1.0722656 0 1.9936523-.1918945 2.7641601-.5756835.7705079-.3837891 1.359375-.9316407 1.7666017-1.6435547.407226-.7119141.61084-1.5424805.61084-2.4916992v-8.3144532h-2.1005862v8.1123047c0 2.0800781-.9902344 3.1201172-2.9707031 3.1201172-1.0195313 0-1.7753906-.2519531-2.2675781-.7558594-.4921875-.5039062-.7382813-1.2861328-.7382813-2.3466797v-8.1298828h-2.109375v8.2792969c0 1.4765625.4423828 2.6367187 1.3271485 3.4804687.8847656.84375 2.1240234 1.265625 3.7177734 1.265625zm10.5292968-.1757812v-12.8496094h-2.100586v12.8496094zm11.663086 0c2.214844 0 3.911133-.5610352 5.088867-1.6831055 1.177735-1.1220703 1.766602-2.7436523 1.766602-4.8647461 0-1.9980468-.56836-3.5478515-1.705078-4.649414-1.136719-1.1015625-2.727539-1.6523438-4.772461-1.6523438h-3.972657v12.8496094zm0-1.7666016h-1.494141v-9.3251953h1.819336c2.876953 0 4.31543 1.538086 4.31543 4.6142578 0 3.140625-1.546875 4.7109375-4.640625 4.7109375zm13.640625 1.9423828c.662109 0 1.250977-.0498046 1.766602-.149414s1.02539-.2695313 1.529296-.5097656v-1.678711c-.568359.2519532-1.100097.4321289-1.595214.5405274-.495118.1083984-1.029786.1625976-1.604004.1625976-.873047 0-1.549805-.2534179-2.030274-.7602539-.480469-.5068359-.735351-1.2319336-.764648-2.1752929h6.477539v-1.116211c0-1.3652344-.37207-2.4375-1.116211-3.2167969-.744141-.7792968-1.757813-1.1689453-3.041016-1.1689453-1.382812 0-2.469726.4541016-3.260742 1.3623047-.791015.9082031-1.186523 2.15625-1.186523 3.7441406 0 1.546875.426269 2.7612305 1.278808 3.6430664.852539.881836 2.034668 1.3227539 3.546387 1.3227539zm1.749023-6.0644531h-4.412109c.076172-.796875.312012-1.4033203.70752-1.8193359.395507-.4160156.921386-.6240234 1.577636-.6240234s1.171875.2065429 1.546875.6196289c.375.4130859.56836 1.0209961.580078 1.8237304zm6.899414 6.0644531c1.289063 0 2.279297-.2534179 2.970704-.7602539.691406-.5068359 1.037109-1.2348632 1.037109-2.184082 0-.46875-.087891-.871582-.263672-1.2084961-.175781-.336914-.445312-.6342773-.808594-.8920898-.363281-.2578125-.946289-.5419922-1.749023-.8525391-.955078-.3691406-1.574707-.6591797-1.858887-.8701172-.284179-.2109375-.426269-.46875-.426269-.7734375 0-.6210937.544922-.9316406 1.634765-.9316406.714844 0 1.59668.2167969 2.645508.6503906l.667969-1.555664c-1.019531-.4628907-2.100586-.694336-3.243164-.694336-1.154297 0-2.066895.2299805-2.737793.6899414-.670899.459961-1.006348 1.1059571-1.006348 1.9379883 0 .6914063.197754 1.2539063.593262 1.6875.395508.4335938 1.152832.8671875 2.271973 1.3007813.574218.2226562 1.02246.421875 1.344726.5976562.322266.1757813.553711.3457031.694336.5097656s.210938.3691407.210938.6152344c0 .7675781-.635743 1.1513672-1.907227 1.1513672-.984375 0-2.047852-.2636719-3.19043-.7910156v1.7841797c.785157.3925781 1.825196.5888671 3.120117.5888671zm7.286133-11.3378906c.363282 0 .645996-.1010742.848145-.3032226.202148-.2021485.303222-.4790039.303222-.8305664 0-.3691407-.101074-.6533204-.303222-.8525391-.202149-.1992187-.484863-.2988281-.848145-.2988281-.375 0-.663574.0996094-.865722.2988281-.202149.1992187-.303223.4833984-.303223.8525391 0 .3515625.101074.6284179.303223.8305664.202148.2021484.490722.3032226.865722.3032226zm1.019532 11.1621094v-9.7207031h-2.06543v9.7207031zm5.756835 4.3242188c1.716797 0 3.029297-.2988282 3.9375-.8964844.908204-.5976563 1.362305-1.4472656 1.362305-2.5488282 0-.8613281-.27832-1.5205078-.834961-1.977539-.55664-.4570313-1.371094-.6855469-2.443359-.6855469h-1.696289c-.556641 0-.938965-.0556641-1.146973-.1669922s-.312012-.2783203-.312012-.5009765c0-.3691407.222657-.6914063.667969-.9667969.251953.046875.533203.0703125.84375.0703125 1.212891 0 2.165039-.2871094 2.856446-.8613281.691406-.5742188 1.037109-1.3623047 1.037109-2.3642579 0-.3339843-.049805-.6503906-.149414-.9492187-.09961-.2988281-.225586-.5507813-.37793-.7558594l1.661133-.3076172v-1.133789h-3.366211c-.152344-.0410157-.379395-.0805664-.681152-.1186524-.301758-.0380859-.590332-.0571289-.865723-.0571289-1.230469 0-2.178223.2900391-2.843262.8701172s-.997558 1.397461-.997558 2.4521484c0 .65625.156738 1.229004.470215 1.7182618.313476.4892578.722167.8422851 1.226074 1.059082-.404297.2460938-.708985.4951172-.914063.7470703s-.307617.5595703-.307617.9228516c0 .2871093.089356.5610351.268066.8217773.178711.2607422.405762.449707.681153.5668946-.679688.1582031-1.208496.4409179-1.586426.8481445-.37793.4072265-.566894.9096679-.566894 1.5073242 0 .8671875.348632 1.5351563 1.045898 2.0039063s1.708008.703125 3.032226.703125zm.47461-9c-.585938 0-1.035645-.1640626-1.349121-.4921876-.313477-.328125-.470215-.796875-.470215-1.40625 0-.6503906.153809-1.1455078.461426-1.4853515.307617-.3398438.760254-.5097656 1.35791-.5097656.603516 0 1.053223.1713867 1.349121.5141601.295898.3427735.443848.8305664.443848 1.4633789 0 1.2773438-.597657 1.9160157-1.792969 1.9160157zm-.413086 7.5761718c-.726563 0-1.290527-.1201172-1.691895-.3603515-.401367-.2402344-.60205-.5830079-.60205-1.0283203 0-.4746094.174316-.8510743.522949-1.1293946s.818848-.4174804 1.410644-.4174804h1.564454c.820312 0 1.381347.0893554 1.683105.2680664.301758.1787109.452637.4790039.452637.9008789 0 .5332031-.275391.9609375-.826172 1.2832031s-1.388672.4833984-2.513672.4833984zm9.210937-2.9003906v-4.8427734c0-1.2128907.202149-2.0771485.606446-2.5927735s1.042969-.7734375 1.916015-.7734375c.65625 0 1.135254.1845703 1.437012.553711.301758.3691406.452637.9287109.452637 1.6787109v5.9765625h2.074219v-6.3369141c0-2.3730468-1.166016-3.5595703-3.498047-3.5595703-.65625 0-1.253907.1259766-1.792969.3779297-.539063.2519531-.955078.609375-1.248047 1.0722656h-.105469l-.290039-1.274414h-1.617187v9.7207031z"/><path d="m25.6570156 21.4285714c-.4209354 0-.8191537.0796875-1.2033408.1935268l-2.166147-3.6174107c.7603564-.7741071 1.2314032-1.8334821 1.2314032-3.0046875s-.4710468-2.2305804-1.230735-3.0046875l2.166147-3.61741071c.3841871.11383928.7824053.19352678 1.2033407.19352678 2.3619154 0 4.2761693-1.91852678 4.2761693-4.28571428s-1.9142539-4.28571429-4.2761693-4.28571429c-1.9904231 0-3.6481069 1.36941964-4.125167 3.21428571h-13.1311804c-.47706013-1.84486607-2.13474387-3.21428571-4.12516703-3.21428571-2.36191537 0-4.27616927 1.91852679-4.27616927 4.28571429 0 1.99486607 1.36570156 3.65625 3.20712695 4.134375v13.16049111c-1.84142539.4774553-3.20712695 2.1388392-3.20712695 4.1337053 0 2.3671875 1.9142539 4.2857143 4.27616927 4.2857143 1.99042316 0 3.6481069-1.36875 4.12516703-3.2142857h13.1311804c.4770601 1.8455357 2.1347439 3.2142857 4.125167 3.2142857 2.3619154 0 4.2761693-1.9185268 4.2761693-4.2857143-.0006681-2.3671875-1.914922-4.2857143-4.2768374-4.2857143zm-20.31180402.1513393v-13.15982141c1.4973274-.38839286 2.66792873-1.56160715 3.05612472-3.06294643h13.1311804c.1910913.73928571.5612472 1.40558035 1.0797327 1.93325893l-2.166147 3.61741071c-.384187-.1138393-.7824053-.1935268-1.2033407-.1935268-2.3619154 0-4.2761693 1.9185268-4.2761693 4.2857143s1.9142539 4.2857143 4.2761693 4.2857143c.4209354 0 .8191537-.0796875 1.2033407-.1935268l2.166147 3.6174107c-.5184855.5276786-.8886414 1.1939732-1.0797327 1.9332589h-13.1311804c-.3886654-1.5011453-1.55832267-2.6734134-3.05612472-3.0629464zm13.89755012-4.4370536c-1.1786192 0-2.1380846-.9616071-2.1380846-2.1428571s.9594654-2.1428571 2.1380846-2.1428571c1.1786191 0 2.1380846.9616071 2.1380846 2.1428571s-.9594655 2.1428571-2.1380846 2.1428571zm6.4142539-14.99999996c1.1786191 0 2.1380846.96160715 2.1380846 2.14285715s-.9594655 2.14285714-2.1380846 2.14285714c-1.1786192 0-2.1380846-.96160714-2.1380846-2.14285714s.9594654-2.14285715 2.1380846-2.14285715zm-23.51893097 2.14285715c0-1.18125.95946548-2.14285715 2.13808464-2.14285715 1.17861915 0 2.13808463.96160715 2.13808463 2.14285715s-.95946548 2.14285714-2.13808463 2.14285714c-1.17861916 0-2.13808464-.96160714-2.13808464-2.14285714zm2.13808464 23.57142861c-1.17861916 0-2.13808464-.9616072-2.13808464-2.1428572s.95946548-2.1428571 2.13808464-2.1428571c1.17861915 0 2.13808463.9616071 2.13808463 2.1428571s-.95946548 2.1428572-2.13808463 2.1428572zm21.38084633 0c-1.1786192 0-2.1380846-.9616072-2.1380846-2.1428572s.9594654-2.1428571 2.1380846-2.1428571c1.1786191 0 2.1380846.9616071 2.1380846 2.1428571s-.9594655 2.1428572-2.1380846 2.1428572z" transform="translate(7 4)"/></g></svg>