<svg height="40" viewBox="0 0 101 40" width="101" xmlns="http://www.w3.org/2000/svg"><g transform="translate(0 3)"><path d="m29.7416667.025h-6.4083334l-4.6666666 7.38333333-4-7.38333333h-14.6666667l18.6666667 31.975 18.6666666-31.975zm-25.10000003 2.66666667h4.48333333l9.5416667 16.51666663 9.5333333-16.51666663h4.4833333l-14.0166666 24.01666663z" transform="translate(63 2)"/><path d="m11.4990234 28 7.6757813-21.328125h-4.0722656l-5.41992191 16.6845703-5.36132813-16.6845703h-4.05761718l7.64648437 21.328125zm15.4726563.2929688c1.9238281 0 3.4082031-.6152344 4.453125-1.8457032l.0878906 1.5527344h3.3544922v-15.8496094h-3.5595703v11.381836c-.6054688 1.2402343-1.772461 1.8603515-3.5009766 1.8603515-1.6699218 0-2.5048828-1.0058593-2.5048828-3.0175781v-10.2246094h-3.5595703v10.2685547c0 1.9042969.4418945 3.359375 1.3256836 4.3652344s2.1850586 1.5087891 3.9038086 1.5087891zm19.5009765 0c1.3183594 0 2.5073243-.2612305 3.5668946-.7836915 1.0595703-.5224609 1.9067383-1.2573242 2.5415039-2.2045898l-1.9189453-1.8310547c-1.0253906 1.3183594-2.3535156 1.9775391-3.984375 1.9775391-1.1621094 0-2.1264649-.3808594-2.8930664-1.1425781-.7666016-.7617188-1.2036133-1.796875-1.3110352-3.1054688h10.3564453v-1.4355469c0-2.5195312-.5883789-4.4677734-1.7651367-5.8447265-1.1767578-1.3769532-2.8442383-2.0654297-5.0024414-2.0654297-1.3574219 0-2.5878906.3466797-3.6914062 1.040039-1.1035157.6933594-1.9604493 1.6625977-2.5708008 2.9077149-.6103516 1.2451172-.9155274 2.6586914-.9155274 4.2407226v.4394532c0 2.3632812.7006836 4.2553711 2.1020508 5.6762695s3.2299805 2.1313477 5.4858398 2.1313477zm2.8417969-9.6972657h-6.7822265c.1660156-1.2207031.5493164-2.1728515 1.1499023-2.8564453.6005859-.6835937 1.3891602-1.0253906 2.3657227-1.0253906.9863281 0 1.7578125.3051758 2.3144531.9155273.5566406.6103516.8740234 1.5112305.9521484 2.7026367z"/></g></svg>